<?xml version="1.0" encoding="UTF-8" standalone="no"?>
<!-- Created with Inkscape (http://www.inkscape.org/) -->
<svg xmlns:dc="http://purl.org/dc/elements/1.1/" xmlns:cc="http://creativecommons.org/ns#" xmlns:rdf="http://www.w3.org/1999/02/22-rdf-syntax-ns#" xmlns:svg="http://www.w3.org/2000/svg" xmlns="http://www.w3.org/2000/svg" xmlns:sodipodi="http://sodipodi.sourceforge.net/DTD/sodipodi-0.dtd" xmlns:inkscape="http://www.inkscape.org/namespaces/inkscape" version="1.1" id="svg1170" xml:space="preserve" width="414.93332" height="566.40002" viewBox="0 0 414.93332 566.40002" sodipodi:docname="hoofd-sticky-donker.svg" inkscape:version="0.92.2 2405546, 2018-03-11"><metadata id="metadata1176"><rdf:RDF><cc:Work rdf:about=""><dc:format>image/svg+xml</dc:format><dc:type rdf:resource="http://purl.org/dc/dcmitype/StillImage"/><dc:title/></cc:Work></rdf:RDF></metadata><defs id="defs1174"><clipPath clipPathUnits="userSpaceOnUse" id="clipPath1186"><path d="M 0,424.8 H 311.2 V 0 H 0 Z" id="path1184" inkscape:connector-curvature="0"/></clipPath></defs><sodipodi:namedview pagecolor="#ffffff" bordercolor="#666666" borderopacity="1" objecttolerance="10" gridtolerance="10" guidetolerance="10" inkscape:pageopacity="0" inkscape:pageshadow="2" inkscape:window-width="1916" inkscape:window-height="1060" id="namedview1172" showgrid="false" inkscape:zoom="1.1785113" inkscape:cx="37.098242" inkscape:cy="283.20001" inkscape:window-x="0" inkscape:window-y="18" inkscape:window-maximized="0" inkscape:current-layer="g1178" inkscape:pagecheckerboard="true"/><g id="g1178" inkscape:groupmode="layer" inkscape:label="hoofd-sticky-donker" transform="matrix(1.3333333,0,0,-1.3333333,0,566.4)"><g id="g1180"><g id="g1182" clip-path="url(#clipPath1186)"><g id="g1188" transform="translate(155.5781,353.2817)"><path d="m 0,0 c -28.235,-24.335 -65.884,31.818 -85.653,-7.955 -24.1,-48.502 41.026,-61.781 27.302,-111.842 -9.18,-33.471 -73.833,-49.027 -53.647,-99.195 3.58,-8.913 21.641,-23.394 21.641,-23.394 83.139,-29.534 -7.874,-65.78 58.822,-82.36 16.066,-4.002 54.124,-12.171 69.181,7.485 3.394,4.43 28.334,48.478 23.754,52.097 -32.821,25.876 6.803,14.676 5.172,20.706 -12.084,44.866 36.216,44.931 37.999,70.755 1.888,27.139 -42.456,52.036 -40.565,91.347 1.68,35.116 47.182,25.649 -11.246,108.829 C 11.35,85.433 2.988,2.579 0,0 Z" style="fill:none;stroke:#000000;stroke-width:10;stroke-linecap:round;stroke-linejoin:round;stroke-miterlimit:4;stroke-dasharray:none;stroke-opacity:1" id="path1190" inkscape:connector-curvature="0"/></g><g id="g1192" transform="translate(168.6172,130.9766)"><path d="M 0,0 H -37.61 L -4.964,204.618 H 32.643 Z" style="fill:#000000;fill-opacity:1;fill-rule:nonzero;stroke:none" id="path1194" inkscape:connector-curvature="0"/></g><g id="g1196" transform="translate(168.6172,130.9766)"><path d="M 0,0 H -37.61 L -4.964,204.618 H 32.643 Z" style="fill:none;stroke:#000000;stroke-width:5;stroke-linecap:round;stroke-linejoin:round;stroke-miterlimit:4;stroke-dasharray:none;stroke-opacity:1" id="path1198" inkscape:connector-curvature="0"/></g><g id="g1200" transform="translate(175.2041,89.1123)"><path d="m 0,0 c 0,-14.222 -13.341,-25.754 -29.794,-25.754 -16.456,0 -29.794,11.532 -29.794,25.754 0,14.228 13.338,25.759 29.794,25.759 C -13.341,25.759 0,14.228 0,0" style="fill:#000000;fill-opacity:1;fill-rule:nonzero;stroke:none" id="path1202" inkscape:connector-curvature="0"/></g><g id="g1204" transform="translate(175.2041,89.1123)"><path d="m 0,0 c 0,-14.222 -13.341,-25.754 -29.794,-25.754 -16.456,0 -29.794,11.532 -29.794,25.754 0,14.228 13.338,25.759 29.794,25.759 C -13.341,25.759 0,14.228 0,0 Z" style="fill:none;stroke:#000000;stroke-width:5;stroke-linecap:round;stroke-linejoin:round;stroke-miterlimit:4;stroke-dasharray:none;stroke-opacity:1" id="path1206" inkscape:connector-curvature="0"/></g></g></g></g></svg>