<?xml version="1.0" encoding="UTF-8"?>
<svg id="Logo_Kleur" data-name="Logo Kleur" xmlns="http://www.w3.org/2000/svg" viewBox="-52.69 0 256 256">
  <defs>
    <style>
      .cls-1 {
        fill: #fff;
      }
    </style>
  </defs>
  <path id="path14" class="cls-1" d="M18.28,193.41c1.8,1.3,8,4.3,9.9,5.5q4.7,2.8,8.5,6.3c3.2,2.6,4.9,6.6,4.5,10.8-.4,2.8-1,5.6-1.8,8.4-.9,3.2-1.8,6.5-1.4,9.9.8,6.5,5.1,10.2,10.8,12.3,13.3,5.1,27,7.8,41.2,5.8,7.8-1,14.3-4.7,18.4-11.8,4.4-7.5,8.5-15.4,12-23.3,1.1-2.3,1.9-4.7,2.4-7.2.6-2.1-.2-4.3-2-5.5-2.1-1.6-4.1-3.5-5.9-5.5,2.5-.2,4.5-.2,6.6-.6,3.8-.7,5-2.5,4-6.3-2.2-8.9-.2-16.6,7.1-22.5,1.9-1.5,3.7-3,5.6-4.4,3-2.1,5.8-4.6,8.2-7.3,3.4-3.9,4.9-9.2,4-14.2-1.1-6.8-4.7-12.4-8.6-17.9-4.8-6.7-10.1-13.2-13.8-20.7-5.3-10.9-5.8-21.4,2.4-31.3,6.5-7.9,7.4-16.9,3.9-26.4-5.7-15.2-14.4-28.6-25-40.8-1.9-2.1-4.2-4-6.8-5.2-1.8-1-3.9-1.6-5.9-1.5-3.2,0-6.3,1.3-8.5,3.7-2.1,2.2-4,4.8-5.1,7.7-2.6,5.6-4.4,11.6-5.5,17.7-.7,3.6-2.8,4.8-5.9,5.6-4.2,1.1-8.2,0-12.2-1.3-5.4-1.7-10.4-4.3-15.9-5.8-6.7-1.9-13.4-1.9-18.4,3.6-7.1,7.8-10.1,17-8.1,27.6,1.3,6.4,4.8,11.7,8.5,16.9,3.4,4.8,7.1,9.4,10,14.6,5.1,9.4,4.8,22.4-3.6,31.1-2,2.1-4,4.1-6.1,6.1-5.8,5.4-11.9,10.4-17.2,16.4C-.02,153.61-2.22,166.31,2.28,177.01c2.4,5.7,6.6,10.4,11.8,13.7l4.2,2.7h0ZM26.38,191.51c-6.7-3.6-11.2-7.2-15.6-12.3-2.5-3-3.8-6.7-3.9-10.6-.3-2.1-.3-4.3,0-6.4.5-5.9,3.6-10.4,7.4-14.7,5.8-6.6,12.9-11.9,19.1-18.1,5.1-4.9,9.3-10.3,10.9-17.3,2.5-10.1.4-19.5-5.2-28-3.6-5.5-7.5-10.7-11.2-16.1-3.2-4.7-5.5-9.9-5.1-15.8.4-5.5,2.3-10.7,5.6-15,2.8-3.7,6.6-4.4,10.9-3.6,6.2,1.3,11.8,4.3,17.8,6.2,4.5,1.4,9,2.8,13.8,1.7,7-1.5,11.4-3.6,12.7-11.4,1-6.2,3-12.1,5.9-17.6,1.3-2.4,2.6-4.8,5.5-5.5.4-.2.7-.2,1.1-.2.5,0,.9.1,1.4.2,4,.9,6.5,3.8,8.9,6.7,5.4,6.3,9.7,13.4,14,20.5,3.2,5.5,6.3,11.2,8,17.3.3,1.1.6,2.3.6,3.4.4,2.1.4,4.3,0,6.3,0,2.1-1,4-2.1,5.7-2.5,4.3-5.9,7.8-7.7,12.5-.9,2.5-1.5,5-1.8,7.6-.2,1.5-.2,3.1-.1,4.6.1.4.1.8.2,1.2.9,9.7,5.3,17.8,10.7,25.6,4.1,5.9,8.9,11.6,12.4,17.9,2.4,4.1,4.3,8.5,2.8,13.4-1.1,3.9-4.2,6.3-7.2,8.7-4.4,3.6-9.3,6.6-13,11.2-3.1,3.8-4.9,8.4-5.4,13.3-.3,1.6-.3,3.2,0,4.8l.1.7c.3,3.9.3,3.8-3.8,4.1-2.6.2-5.2.6-6.4,3.3-1.2,2.7-.1,4.9,1.6,7,1.3,1.7,2.8,3.1,4.4,4.4,2,1.3,2.2,2.9,1.3,5.1-2.2,5.4-4.9,10.5-7.5,15.7-1.5,2.9-3.4,5.6-4.8,8.5-3.3,6.6-9.2,9-16,9.7-11.6,1.1-22.8-1.2-33.8-4.7-.6-.2-1.2-.5-1.7-.7-7-3.2-8.2-5.6-6.3-13.1.9-3.7,2.1-7.4,2.5-11.2.6-6.7-2.1-11.8-6.6-16-1.3-1.3-2.8-2.3-4.4-3.2l-10-5.8h0Z"/>
  <path class="cls-1" d="M79.54,219.09c-7.22,3.51-16.54,1.1-20.96-4.41-5.82-7.42-3.51-15.14,4.51-19.15,8.32-4.31,15.84-3.21,21.46,2.51,2.41,2.21,3.81,5.21,3.91,8.42-.2,6.62-3.71,10.03-8.92,12.63Z"/>
  <path class="cls-1" d="M105.51,46.43c-2.91,17.15-5.51,34.39-8.32,51.54-2.51,15.74-5.01,31.38-7.52,47.02-1.5,9.73-3.21,19.45-4.71,29.18-.1.9,0,1.6-1.4,1.6-5.72.1-11.33.2-16.94.2,2.51-15.84,4.81-31.28,7.32-46.72,2.61-16.14,5.11-32.18,7.72-48.33,1.7-10.93,3.51-21.86,5.01-32.89.3-2.41,1-3.41,3.71-3.21,4.51.3,9.12.1,13.74.1,1,0,1.7-.1,1.4,1.5Z"/>
</svg>