<?xml version="1.0" encoding="UTF-8"?>
<svg id="Logo_Kleur" data-name="Logo Kleur" xmlns="http://www.w3.org/2000/svg" viewBox="0 0 750.46 274.21">
  <defs>
    <style>
      .cls-1 {
        fill: #fff;
      }
    </style>
  </defs>
  <path id="path8" class="cls-1" d="M732.95,105.71c.6-1.6,1.8-2.2,3.5-2.2,4.4.1,8.6,0,13,0,.5,0,.9.4,1,.9v.1c.1,1.1-.3,2.2-.7,3.2-.9,2-1.6,3.5-2.6,6-23.2,52.8-46.2,105.7-69.3,158.6-.6,1.1-1.7,1.9-3,1.9-4.4-.1-8.9,0-13.6,0-.7,0-1.2-.7-.9-1.4,2.2-5.2,4.4-10.2,6.6-15.2,5.3-12.2,10.7-24.4,16-36.6.7-1.3.7-2.9,0-4.3l-49.5-111c-.1-.3-.3-.7-.4-1-.2-.6.2-1.3.9-1.3h14.5c1.2,0,1.4.8,1.7,1.6l27.5,61.5,13.8,30.9c.4.8,1.5.8,1.8-.1l39.7-91.6Z"/>
  <path id="path10" class="cls-1" d="M610.55,228.21h-22.3c-.9,0-1.5-.7-2-1.2l-59.8-53.7c-.4-.3-.8-.6-1.6-1.3v2.9c0,17,0,33.9.1,50.9,0,1.9-.6,2.4-2.4,2.3h-12.4c-1.3,0-1.7-.4-1.6-1.6v-1.2c0-55.9,0-111.7-.1-167.6,0-2.4.6-2.9,2.8-2.8h11.2c1.9-.1,2.3.6,2.3,2.4-.1,25-.1,50,0,75.1v20.8c2.4-2,4.4-3.7,6.4-5.4,16.4-14.3,32.8-28.5,49.2-42.8,1.1-1.1,2.7-1.7,4.3-1.6,7,.1,14,0,21.5,0-2.3,2-4.2,3.7-6.1,5.4-20.1,17.4-40.2,34.7-60.4,52.1-1.7,1.4-1.7,2.1-.1,3.6,23,20.7,46.2,41.4,69.1,62.3l1.9,1.4h0Z"/>
  <path id="path12" class="cls-1" d="M403.45,231.21c-25.6,0-44.7-8.4-58.9-26.9-9.9-12.9-13.3-27.5-11.9-43.6,2.4-28.5,24-54.4,57.4-59.3,18.2-2.7,35.4.3,51.4,9.6,7,4.2,12.9,9.9,17.3,16.9.8,1.2.8,1.7-.6,2.5-3.3,2-6.6,4-9.9,6.2-1.3.9-1.8.5-2.6-.6-8.2-10.3-18.7-17.1-31.8-19.5-22.9-4.2-45.4,2.6-58.4,23.8-15.1,24.5-4.9,59.7,24.1,71.6,21.6,8.8,48.8,4.9,65.9-16.2,1-1.3,1.6-1.5,3-.6,3.1,2.2,6.3,4.3,9.5,6.3,1.5.9,1.4,1.6.5,2.8-9.2,12.6-21.6,20.4-36.6,24.3-6.1,1.8-12.3,2.7-18.4,2.7h0Z"/>
  <path id="path16" class="cls-1" d="M36.25,232.21c-13.8-.4-25.6-5.2-35.2-15.5-1.2-1.3-1.5-2.1-.2-3.5,2.6-2.7,5-5.5,7.4-8.4,1-1.3,1.7-1.3,2.8-.1,5.2,5.6,11.2,10.2,18.9,11.8,9.7,2,18.1-.5,24.5-8.1,6.6-7.9,5.6-19.6-2.3-26.3-.1-.1-.2-.1-.2-.2-6-5-12.9-8.4-19.7-12-7.2-3.9-14.3-8-19.5-14.3-8.3-10-9.8-21.5-5.4-33.4,4.3-11.7,13.3-18.2,25.6-20.3,13.2-2.1,24.4,2.6,34.6,10.4,2.2,1.7,5.7,3.3,5.9,5.5s-2.1,4.2-3.9,6.2c-1.4,1.6-4.1,3.9-5.8,4.1-1.3.2-3.2-2.3-4.7-3.6-5.4-4.3-11.2-7.4-18.1-8.3-9.6-1.3-19.3,5.3-20.9,14.8-1.1,6.5,1.9,11.8,6.5,16,4.7,4.3,10.2,7.3,15.8,10.3,6.2,3.2,12.2,6.9,17.9,11,20.8,15.1,17.8,45.3-3.2,58.1-6.3,4-13.5,5.9-20.8,5.8h0Z"/>
  <path id="path18" class="cls-1" d="M156.55,226.71c0,2-.5,2.4-2.4,2.4h-11.7c-2,0-2.3-.6-2.3-2.4.1-35.2,0-70.5.1-105.6,0-2.3-.4-3-2.9-3-5.7,0-11.3,0-17,.1-1.4,0-2.1-.2-2-1.9v-10.3c-.1-1.6.5-1.8,1.9-1.8,5.9.1,11.8,0,17.7.1,1.8,0,2.4-.4,2.4-2.3-.1-14,0-27.9-.1-41.8,0-1.8.4-2.4,2.4-2.4h12.2c1.7,0,2,.5,2,2-.1,14,0,27.9-.1,41.8,0,2.3.7,2.7,2.8,2.6,6.9-.2,13.9,0,20.8-.1,1.6,0,2,.4,2,2v10c.1,1.6-.5,2-2,2-7.1-.1-14.2,0-21.3-.1-1.8,0-2.2.2-2.2,2.2l-.3,106.5Z"/>
  <path id="path14" class="cls-1" d="M189.95,193.41c1.8,1.3,8,4.3,9.9,5.5q4.7,2.8,8.5,6.3c3.2,2.6,4.9,6.6,4.5,10.8-.4,2.8-1,5.6-1.8,8.4-.9,3.2-1.8,6.5-1.4,9.9.8,6.5,5.1,10.2,10.8,12.3,13.3,5.1,27,7.8,41.2,5.8,7.8-1,14.3-4.7,18.4-11.8,4.4-7.5,8.5-15.4,12-23.3,1.1-2.3,1.9-4.7,2.4-7.2.6-2.1-.2-4.3-2-5.5-2.1-1.6-4.1-3.5-5.9-5.5,2.5-.2,4.5-.2,6.6-.6,3.8-.7,5-2.5,4-6.3-2.2-8.9-.2-16.6,7.1-22.5,1.9-1.5,3.7-3,5.6-4.4,3-2.1,5.8-4.6,8.2-7.3,3.4-3.9,4.9-9.2,4-14.2-1.1-6.8-4.7-12.4-8.6-17.9-4.8-6.7-10.1-13.2-13.8-20.7-5.3-10.9-5.8-21.4,2.4-31.3,6.5-7.9,7.4-16.9,3.9-26.4-5.7-15.2-14.4-28.6-25-40.8-1.9-2.1-4.2-4-6.8-5.2-1.8-1-3.9-1.6-5.9-1.5-3.2,0-6.3,1.3-8.5,3.7-2.1,2.2-4,4.8-5.1,7.7-2.6,5.6-4.4,11.6-5.5,17.7-.7,3.6-2.8,4.8-5.9,5.6-4.2,1.1-8.2,0-12.2-1.3-5.4-1.7-10.4-4.3-15.9-5.8-6.7-1.9-13.4-1.9-18.4,3.6-7.1,7.8-10.1,17-8.1,27.6,1.3,6.4,4.8,11.7,8.5,16.9,3.4,4.8,7.1,9.4,10,14.6,5.1,9.4,4.8,22.4-3.6,31.1-2,2.1-4,4.1-6.1,6.1-5.8,5.4-11.9,10.4-17.2,16.4-8.6,9.7-10.8,22.4-6.3,33.1,2.4,5.7,6.6,10.4,11.8,13.7l4.2,2.7h0ZM198.05,191.51c-6.7-3.6-11.2-7.2-15.6-12.3-2.5-3-3.8-6.7-3.9-10.6-.3-2.1-.3-4.3,0-6.4.5-5.9,3.6-10.4,7.4-14.7,5.8-6.6,12.9-11.9,19.1-18.1,5.1-4.9,9.3-10.3,10.9-17.3,2.5-10.1.4-19.5-5.2-28-3.6-5.5-7.5-10.7-11.2-16.1-3.2-4.7-5.5-9.9-5.1-15.8.4-5.5,2.3-10.7,5.6-15,2.8-3.7,6.6-4.4,10.9-3.6,6.2,1.3,11.8,4.3,17.8,6.2,4.5,1.4,9,2.8,13.8,1.7,7-1.5,11.4-3.6,12.7-11.4,1-6.2,3-12.1,5.9-17.6,1.3-2.4,2.6-4.8,5.5-5.5.4-.2.7-.2,1.1-.2.5,0,.9.1,1.4.2,4,.9,6.5,3.8,8.9,6.7,5.4,6.3,9.7,13.4,14,20.5,3.2,5.5,6.3,11.2,8,17.3.3,1.1.6,2.3.6,3.4.4,2.1.4,4.3,0,6.3,0,2.1-1,4-2.1,5.7-2.5,4.3-5.9,7.8-7.7,12.5-.9,2.5-1.5,5-1.8,7.6-.2,1.5-.2,3.1-.1,4.6.1.4.1.8.2,1.2.9,9.7,5.3,17.8,10.7,25.6,4.1,5.9,8.9,11.6,12.4,17.9,2.4,4.1,4.3,8.5,2.8,13.4-1.1,3.9-4.2,6.3-7.2,8.7-4.4,3.6-9.3,6.6-13,11.2-3.1,3.8-4.9,8.4-5.4,13.3-.3,1.6-.3,3.2,0,4.8l.1.7c.3,3.9.3,3.8-3.8,4.1-2.6.2-5.2.6-6.4,3.3-1.2,2.7-.1,4.9,1.6,7,1.3,1.7,2.8,3.1,4.4,4.4,2,1.3,2.2,2.9,1.3,5.1-2.2,5.4-4.9,10.5-7.5,15.7-1.5,2.9-3.4,5.6-4.8,8.5-3.3,6.6-9.2,9-16,9.7-11.6,1.1-22.8-1.2-33.8-4.7-.6-.2-1.2-.5-1.7-.7-7-3.2-8.2-5.6-6.3-13.1.9-3.7,2.1-7.4,2.5-11.2.6-6.7-2.1-11.8-6.6-16-1.3-1.3-2.8-2.3-4.4-3.2l-10-5.8h0Z"/>
  <path class="cls-1" d="M251.21,219.09c-7.22,3.51-16.54,1.1-20.96-4.41-5.82-7.42-3.51-15.14,4.51-19.15,8.32-4.31,15.84-3.21,21.46,2.51,2.41,2.21,3.81,5.21,3.91,8.42-.2,6.62-3.71,10.03-8.92,12.63Z"/>
  <path class="cls-1" d="M277.18,46.43c-2.91,17.15-5.51,34.39-8.32,51.54-2.51,15.74-5.01,31.38-7.52,47.02-1.5,9.73-3.21,19.45-4.71,29.18-.1.9,0,1.6-1.4,1.6-5.72.1-11.33.2-16.94.2,2.51-15.84,4.81-31.28,7.32-46.72,2.61-16.14,5.11-32.18,7.72-48.33,1.7-10.93,3.51-21.86,5.01-32.89.3-2.41,1-3.41,3.71-3.21,4.51.3,9.12.1,13.74.1,1,0,1.7-.1,1.4,1.5Z"/>
</svg>