<?xml version="1.0" encoding="UTF-8" standalone="no"?>
<!-- Created with Inkscape (http://www.inkscape.org/) -->

<svg
   xmlns:dc="http://purl.org/dc/elements/1.1/"
   xmlns:cc="http://creativecommons.org/ns#"
   xmlns:rdf="http://www.w3.org/1999/02/22-rdf-syntax-ns#"
   xmlns:svg="http://www.w3.org/2000/svg"
   xmlns="http://www.w3.org/2000/svg"
   xmlns:sodipodi="http://sodipodi.sourceforge.net/DTD/sodipodi-0.dtd"
   xmlns:inkscape="http://www.inkscape.org/namespaces/inkscape"
   width="415.69968mm"
   height="201.77809mm"
   viewBox="0 0 415.69968 201.77809"
   version="1.1"
   id="svg8"
   inkscape:version="0.92.4 (5da689c313, 2019-01-14)"
   sodipodi:docname="sticky-logo-text.svg">
  <defs
     id="defs2" />
  <sodipodi:namedview
     id="base"
     pagecolor="#ffffff"
     bordercolor="#666666"
     borderopacity="1.0"
     inkscape:pageopacity="0.0"
     inkscape:pageshadow="2"
     inkscape:zoom="0.32"
     inkscape:cx="479.2932"
     inkscape:cy="602.28611"
     inkscape:document-units="mm"
     inkscape:current-layer="layer1"
     showgrid="false"
     inkscape:pagecheckerboard="true"
     inkscape:window-width="1920"
     inkscape:window-height="1027"
     inkscape:window-x="-8"
     inkscape:window-y="22"
     inkscape:window-maximized="1"
     fit-margin-top="0"
     fit-margin-left="0"
     fit-margin-right="0"
     fit-margin-bottom="0" />
  <metadata
     id="metadata5">
    <rdf:RDF>
      <cc:Work
         rdf:about="">
        <dc:format>image/svg+xml</dc:format>
        <dc:type
           rdf:resource="http://purl.org/dc/dcmitype/StillImage" />
        <dc:title></dc:title>
      </cc:Work>
    </rdf:RDF>
  </metadata>
  <g
     inkscape:label="Layer 1"
     inkscape:groupmode="layer"
     id="layer1"
     style="display:inline;opacity:1"
     transform="translate(109.3925,-33.588969)">
    <path
       style="fill:#000000;stroke-width:0.26458332"
       d=""
       id="path23"
       inkscape:connector-curvature="0" />
    <path
       style="fill:#000000;stroke-width:0.26458332"
       d=""
       id="path21"
       inkscape:connector-curvature="0" />
    <path
       style="fill:#000000;stroke-width:0.26458332"
       d=""
       id="path33"
       inkscape:connector-curvature="0" />
    <path
       style="display:inline;opacity:1;fill:#fefefe;stroke-width:0.26458332"
       d="m -63.39047,235.12014 c -1.56537,-0.39104 -2.42338,-0.93173 -3.60035,-2.26884 -2.45729,-2.79163 -2.46893,-6.92519 -0.0273,-9.69901 1.46301,-1.66207 3.10036,-2.41213 5.28239,-2.41982 2.23518,-0.008 3.52452,0.4558 4.9685,1.78681 1.61404,1.48777 2.2409,2.82733 2.38979,5.10677 0.10501,1.60763 0.0266,2.10009 -0.52681,3.3089 -1.19443,2.60897 -3.22738,4.05613 -6.05112,4.30751 -0.78887,0.0702 -1.88465,0.0152 -2.43509,-0.12232 z m 4.16664,-2.29366 c 1.14824,-0.58077 1.71982,-1.1381 2.25049,-2.19437 1.19077,-2.3702 0.76287,-4.79269 -1.15959,-6.56475 -3.33633,-3.07532 -8.60412,-0.6905 -8.61803,3.90153 -0.0124,4.09641 3.9616,6.66101 7.52713,4.85759 z m 46.57581,2.3342 c -3.87126,-1.01654 -6.22742,-4.75937 -5.42606,-8.61947 1.0722,-5.16478 7.18051,-7.59828 11.2586603,-4.48536 l 1.17886,0.89985 v -0.9243 c 0,-0.90195 0.0256,-0.92429 1.05833,-0.92429 h 1.05834 v 6.87917 6.87916 h -1.05834 c -1.03812,0 -1.05833,-0.0181 -1.05833,-0.94956 v -0.94956 l -0.82569,0.69477 c -1.56632,1.31797 -4.3278803,1.98745 -6.1857703,1.49959 z m 4.3169403,-2.46107 c 2.88691,-1.37555 3.65549,-5.73652 1.44268,-8.18583 -1.55596,-1.72226 -3.2265303,-2.29616 -5.2215903,-1.7938 -4.25313,1.07095 -5.50793,6.71056 -2.10167,9.44579 1.78837,1.43606 3.63522,1.60372 5.8805803,0.53384 z m 29.0825997,2.42147 c -4.42297,-1.10573 -6.78249,-5.33498 -5.33934,-9.57036 1.22405,-3.59242 5.38041,-5.61701 9.42028,-4.58869 1.78887,0.45534 3.02466,1.18705 3.9137,2.31727 l 0.54873,0.6976 -0.81607,0.58109 -0.81607,0.58109 -0.37758,-0.53907 c -1.02285,-1.46032 -3.77822,-2.34306 -5.89594,-1.8889 -1.41794,0.3041 -3.24056,1.65665 -3.84632,2.85433 -1.55253,3.06957 0.38253,6.95315 3.83327,7.6932 2.13098,0.45701 4.88311,-0.42144 5.90899,-1.88609 l 0.37758,-0.53908 0.85667,0.61 0.85667,0.61 -1.32655,1.21978 c -0.72961,0.67087 -1.79113,1.35875 -2.35894,1.52862 -1.52236,0.45543 -3.80426,0.60291 -4.93908,0.31921 z m 16.69152,-0.0843 c -5.04092,-1.40306 -6.89514,-7.9028 -3.39035,-11.88446 1.50753,-1.71264 3.10844,-2.42633 5.42221,-2.41723 2.03753,0.008 3.40584,0.54276 4.69982,1.83674 l 0.72414,0.72414 v -1.09442 c 0,-1.07437 0.017,-1.09441 0.92604,-1.09441 h 0.92604 v 6.87917 6.87916 H 45.8249 c -0.88448,0 -0.92604,-0.0422 -0.92604,-0.9395 v -0.93951 l -0.8599,0.64369 c -2.04577,1.53139 -4.36822,2.02667 -6.59592,1.40663 z m 3.6447,-1.88385 c 3.81361,-1.13252 5.05784,-6.03163 2.27573,-8.96056 -1.07736,-1.1342 -2.14262,-1.58319 -3.75628,-1.58319 -2.15892,0 -3.80205,1.07451 -4.86459,3.18117 -1.33176,2.64045 0.37899,6.44155 3.31066,7.35593 1.49182,0.46529 1.49009,0.46529 3.03448,0.007 z m 20.74458,1.94446 c -1.5844,-0.63179 -2.64909,-2.24045 -2.64015,-3.98909 0.009,-1.6922 0.88306,-3.33513 2.66977,-5.01617 l 1.59142,-1.49731 -0.97681,-1.35965 c -2.29508,-3.19459 -0.83875,-6.36136 2.92547,-6.36136 2.51148,0 4.10308,1.3035 4.10308,3.36036 0,1.45833 -0.27384,2.00116 -1.81057,3.58901 l -1.22024,1.26083 2.28571,2.2857 2.2857,2.28571 1.05372,-0.83456 c 0.57954,-0.459 1.15564,-0.83081 1.28022,-0.82624 0.12458,0.005 0.45786,0.32534 0.74063,0.71283 l 0.51411,0.70451 -1.11032,0.93328 -1.11032,0.93329 1.77973,1.79347 1.77973,1.79347 h -1.45916 c -1.37306,0 -1.52602,-0.0681 -2.59191,-1.15417 l -1.13274,-1.15418 -1.70415,1.14275 c -0.93728,0.62852 -2.14898,1.2663 -2.69266,1.41729 -1.23022,0.34165 -3.68051,0.33103 -4.56026,-0.0198 z m 4.8104,-2.3397 c 0.62843,-0.31652 1.49978,-0.86348 1.93634,-1.21547 l 0.79375,-0.63999 -2.29159,-2.29245 -2.29159,-2.29246 -1.10314,0.94425 c -2.49564,2.13617 -3.06752,3.95711 -1.65586,5.27243 0.40018,0.37288 0.90619,0.74895 1.12448,0.83572 0.68191,0.27108 2.29701,-0.0123 3.48761,-0.61203 z m 0.64403,-11.71909 c 0.49718,-0.94926 0.1406,-1.64234 -1.04652,-2.03413 -0.94384,-0.31149 -1.60631,-0.18108 -2.35752,0.4641 -0.6691,0.57466 -0.57387,1.28721 0.36827,2.7554 l 0.83129,1.29546 0.91107,-0.87542 c 0.50109,-0.48148 1.08313,-1.20391 1.29341,-1.60541 z m 54.79569,14.08157 c -1.56537,-0.39104 -2.42338,-0.93173 -3.60035,-2.26884 -2.45729,-2.79163 -2.46893,-6.92519 -0.0273,-9.69901 1.46302,-1.66207 3.10037,-2.41213 5.2824,-2.41982 2.23518,-0.008 3.52452,0.4558 4.96849,1.78681 1.61404,1.48777 2.24091,2.82733 2.38979,5.10677 0.10501,1.60763 0.0266,2.10009 -0.52681,3.3089 -1.19442,2.60897 -3.22737,4.05613 -6.05112,4.30751 -0.78886,0.0702 -1.88465,0.0152 -2.43508,-0.12232 z m 4.16664,-2.29366 c 1.14824,-0.58077 1.71982,-1.1381 2.25049,-2.19437 1.19077,-2.3702 0.76287,-4.79269 -1.15959,-6.56475 -3.33633,-3.07532 -8.60413,-0.6905 -8.61803,3.90153 -0.0124,4.09641 3.9616,6.66101 7.52713,4.85759 z m 46.57581,2.3342 c -3.87125,-1.01654 -6.22742,-4.75937 -5.42607,-8.61947 1.07222,-5.16478 7.18052,-7.59828 11.25868,-4.48536 l 1.17885,0.89985 v -0.9243 c 0,-0.90195 0.0257,-0.92429 1.05833,-0.92429 h 1.05834 v 6.87917 6.87916 h -1.05834 c -1.03812,0 -1.05833,-0.0181 -1.05833,-0.94956 v -0.94956 l -0.82569,0.69477 c -1.56633,1.31797 -4.32789,1.98745 -6.18577,1.49959 z m 4.31694,-2.46107 c 2.8869,-1.37555 3.65549,-5.73652 1.44267,-8.18583 -1.55594,-1.72226 -3.22651,-2.29616 -5.22158,-1.7938 -4.25312,1.07095 -5.50794,6.71056 -2.10166,9.44579 1.78837,1.43606 3.63521,1.60372 5.88057,0.53384 z m 28.88827,2.46267 c -1.45659,-0.31439 -2.85504,-1.08094 -3.61601,-1.98209 -3.17436,-3.75914 -2.33915,-9.32325 1.74588,-11.63115 1.2451,-0.70344 1.67442,-0.80298 3.43255,-0.79592 1.19681,0.005 2.39175,0.17163 2.95473,0.41252 2.30981,0.98826 4.20627,3.67238 4.21151,5.96074 l 0.003,1.12448 h -6.18985 -6.18984 l 0.19476,0.8599 c 1.10894,4.89651 6.67692,5.86673 9.69179,1.68879 0.54158,-0.75048 0.55647,-0.75394 1.3906,-0.3226 0.81163,0.41971 0.82902,0.4629 0.46548,1.15548 -0.55613,1.0595 -2.26568,2.6197 -3.37831,3.0832 -1.19681,0.49856 -3.47551,0.71438 -4.71588,0.44665 z m 6.61458,-8.90634 c 0,-0.0786 -0.23791,-0.6092 -0.52871,-1.17921 -0.58484,-1.14638 -2.18985,-2.22025 -3.71661,-2.48667 -2.07163,-0.36151 -4.34639,0.88332 -5.38855,2.94882 l -0.43389,0.8599 h 5.03388 c 2.76863,0 5.03388,-0.0643 5.03388,-0.14284 z m 23.45352,8.84577 c -2.28399,-0.53659 -3.67729,-2.03539 -4.13481,-4.44783 -0.14779,-0.7793 -0.26871,-3.24613 -0.26871,-5.48184 v -4.06493 h 1.05834 1.05833 v 4.69635 c 0,4.21949 0.0544,4.78392 0.52676,5.55867 1.63298,2.67829 5.82189,2.55854 7.2109,-0.20613 0.38693,-0.77008 0.46268,-1.66768 0.46302,-5.48483 v -4.56406 h 1.0935 1.09349 l -0.12319,4.82865 c -0.10406,4.07948 -0.20531,5.01337 -0.65249,6.01927 -1.1962,2.69075 -4.05005,3.91646 -7.32655,3.14668 z m 33.82877,0.12518 c -1.69092,-0.41971 -2.4579,-0.80772 -3.50575,-1.77362 -1.57504,-1.4518 -2.23438,-2.83236 -2.39033,-5.00484 -0.1633,-2.27463 0.39553,-3.82423 1.99612,-5.5354 1.3915,-1.48763 3.0448,-2.19711 5.09059,-2.18454 1.91952,0.0118 3.28229,0.50248 4.5325,1.63196 l 1.02375,0.9249 v -3.86724 -3.86725 h 0.92604 0.92604 v 9.65729 9.65729 h -0.92604 c -0.90212,0 -0.92604,-0.027 -0.92604,-1.0457 v -1.0457 l -0.72761,0.68567 c -1.36101,1.28257 -4.38951,2.1717 -6.01927,1.76718 z m 3.85702,-2.4886 c 3.2584,-1.66231 3.834,-5.93281 1.16054,-8.61029 -1.80081,-1.80352 -4.05839,-2.06601 -6.3836,-0.74223 -3.08353,1.75551 -3.46988,6.0345 -0.76954,8.52357 0.64804,0.59735 1.51273,1.16007 1.92151,1.25049 0.40878,0.0904 0.8623,0.20792 1.00782,0.2611 0.48157,0.17601 2.07714,-0.17956 3.06327,-0.68264 z m 14.00236,2.42399 c -1.45659,-0.31439 -2.85504,-1.08094 -3.61601,-1.98209 -3.17437,-3.75914 -2.33916,-9.32325 1.74588,-11.63115 1.2451,-0.70344 1.67441,-0.80298 3.43254,-0.79592 1.19682,0.005 2.39176,0.17163 2.95474,0.41252 2.30981,0.98826 4.20627,3.67238 4.2115,5.96074 l 0.003,1.12448 h -6.18985 -6.18985 l 0.19476,0.8599 c 1.10895,4.89651 6.67692,5.86673 9.6918,1.68879 0.54157,-0.75048 0.55647,-0.75394 1.39059,-0.3226 0.81164,0.41971 0.82902,0.4629 0.46549,1.15548 -0.55613,1.0595 -2.26568,2.6197 -3.37831,3.0832 -1.19682,0.49856 -3.47551,0.71438 -4.71588,0.44665 z m 6.61458,-8.90634 c 0,-0.0786 -0.23791,-0.6092 -0.52872,-1.17921 -0.58483,-1.14638 -2.18985,-2.22025 -3.7166,-2.48667 -2.07163,-0.36151 -4.34639,0.88332 -5.38856,2.94882 l -0.43389,0.8599 h 5.03389 c 2.76862,0 5.03388,-0.0643 5.03388,-0.14284 z m -393.69999,1.73034 v -6.87917 h 1.05834 1.05833 v 6.87917 6.87916 h -1.05833 -1.05834 z m 6.08542,0 v -6.87917 h 1.05833 c 1.04337,0 1.05834,0.0138 1.05834,0.97554 v 0.97555 l 0.7276,-0.68076 c 1.54934,-1.44958 3.7396,-2.0419 5.64915,-1.52771 1.4422,0.38835 2.99315,1.90433 3.3823,3.30605 0.16374,0.5898 0.29281,3.17481 0.29364,5.88102 l 0.002,4.82864 h -0.92605 -0.92604 l -0.006,-4.29948 c -0.004,-2.36471 -0.11259,-4.75747 -0.24248,-5.31723 -0.84407,-3.63739 -5.7709,-3.4966 -7.45596,0.21306 -0.40441,0.8903 -0.48668,1.76679 -0.49152,5.23647 l -0.006,4.16718 h -1.05833 -1.05833 z m 17.19792,0.79375 v -6.08542 h -0.92605 c -0.85254,0 -0.92604,-0.063 -0.92604,-0.79375 0,-0.73075 0.0735,-0.79375 0.92604,-0.79375 h 0.92605 v -1.68031 c 0,-3.45667 1.18503,-4.5782 4.20026,-3.97516 0.74899,0.1498 0.82682,0.25841 0.82682,1.15387 v 0.9885 l -1.03804,-0.27707 c -1.51924,-0.40551 -1.87238,-0.009 -1.87238,2.10277 v 1.6874 h 1.45521 c 1.44051,0 1.45521,0.008 1.45521,0.79375 0,0.78573 -0.0147,0.79375 -1.45521,0.79375 h -1.45521 v 6.08542 6.08541 h -1.05833 -1.05833 z m 24.60624,-0.79375 v -6.87917 h 1.05834 c 0.96373,0 1.05833,0.0616 1.05833,0.68887 v 0.68886 l 0.8951,-0.7859 c 1.02361,-0.89875 2.4266,-1.25331 3.43788,-0.86883 0.80566,0.30632 0.84311,0.47569 0.28223,1.27646 -0.30127,0.43013 -0.67866,0.58804 -1.40532,0.58804 -1.10474,0 -1.86608,0.56147 -2.61147,1.9259 -0.38345,0.70191 -0.48107,1.68059 -0.55342,5.54858 l -0.0879,4.69635 h -1.03691 -1.0369 z m 8.99584,0 v -6.87917 h 0.92604 c 0.88578,0 0.92604,0.0411 0.92604,0.94666 v 0.94666 l 1.07382,-0.91915 c 1.22863,-1.05167 3.01834,-1.59711 4.4349,-1.3516 1.34324,0.2328 2.80904,1.23126 3.20268,2.18158 l 0.32888,0.79401 0.95008,-1.05163 c 1.0802,-1.19564 1.88345,-1.66267 3.30103,-1.9193 2.22115,-0.40209 4.61509,1.05401 5.2007,3.16331 0.16297,0.58703 0.29102,3.22248 0.29185,6.00686 l 0.002,4.96093 h -0.92604 -0.92604 l -0.002,-4.56406 c -8e-4,-2.51023 -0.12398,-5.00513 -0.2737,-5.54421 -0.80381,-2.8942 -5.02247,-2.74076 -6.49944,0.23639 -0.41689,0.84032 -0.51508,1.74683 -0.58928,5.44011 l -0.089,4.43177 h -1.02061 -1.02061 l -0.0816,-5.31391 -0.0816,-5.31391 -0.86408,-0.7715 c -1.51275,-1.3507 -3.7956,-0.94448 -5.22519,0.92981 -0.85677,1.12329 -1.17417,3.1007 -1.18146,7.36066 l -0.005,3.10885 h -0.92604 -0.92604 z m 44.7145803,0.79375 v -6.08542 H 0.97802027 c -1.29352,0 -1.32291,-0.0177 -1.32291,-0.79375 0,-0.77611 0.0294,-0.79375 1.32291,-0.79375 H 2.3009403 v -2.64583 -2.64584 h 0.92604 0.92604 v 2.64584 2.64583 h 1.45521 c 1.44051,0 1.45521,0.008 1.45521,0.79375 0,0.78573 -0.0147,0.79375 -1.45521,0.79375 h -1.45521 v 6.08542 6.08541 h -0.92604 -0.92604 z m 7.40833,-0.79375 v -6.87917 h 0.9260397 0.92605 v 6.87917 6.87916 H 10.63531 9.7092703 Z m 76.7291697,0 v -6.87917 h 0.92604 0.92604 v 6.87917 6.87916 h -0.92604 -0.92604 z m 5.82083,0 v -6.87917 h 1.05833 c 1.04337,0 1.05834,0.0138 1.05834,0.97554 v 0.97555 l 0.7276,-0.68076 c 1.54935,-1.44958 3.7396,-2.0419 5.64915,-1.52771 1.4422,0.38835 2.99315,1.90433 3.3823,3.30605 0.16374,0.5898 0.29281,3.17481 0.29364,5.88102 l 0.001,4.82864 h -0.92604 -0.92604 l -0.006,-4.29948 c -0.003,-2.36471 -0.11259,-4.75747 -0.24248,-5.31723 -0.84407,-3.63739 -5.77089,-3.4966 -7.45596,0.21306 -0.4044,0.8903 -0.48667,1.76679 -0.49151,5.23647 l -0.006,4.16718 h -1.05834 -1.05833 z m 17.19791,0.79375 v -6.08542 h -0.92604 c -0.85254,0 -0.92604,-0.063 -0.92604,-0.79375 0,-0.73075 0.0735,-0.79375 0.92604,-0.79375 h 0.92604 v -1.68031 c 0,-3.45667 1.18504,-4.5782 4.20027,-3.97516 0.74899,0.1498 0.82682,0.25841 0.82682,1.15387 v 0.9885 l -1.03804,-0.27707 c -1.51924,-0.40551 -1.87238,-0.009 -1.87238,2.10277 v 1.6874 h 1.45521 c 1.44051,0 1.45521,0.008 1.45521,0.79375 0,0.78573 -0.0147,0.79375 -1.45521,0.79375 h -1.45521 v 6.08542 6.08541 h -1.05833 -1.05834 z m 24.60625,-0.79375 v -6.87917 h 1.05834 c 0.96373,0 1.05833,0.0616 1.05833,0.68887 v 0.68886 l 0.8951,-0.7859 c 1.02361,-0.89875 2.4266,-1.25331 3.43788,-0.86883 0.80566,0.30632 0.84311,0.47569 0.28223,1.27646 -0.30127,0.43013 -0.67866,0.58804 -1.40532,0.58804 -1.10474,0 -1.86608,0.56147 -2.61147,1.9259 -0.38345,0.70191 -0.48107,1.68059 -0.55342,5.54858 l -0.0879,4.69635 h -1.03691 -1.03691 z m 8.99584,0 v -6.87917 h 0.92604 c 0.88578,0 0.92604,0.0411 0.92604,0.94666 v 0.94666 l 1.07382,-0.91915 c 1.22863,-1.05167 3.01834,-1.59711 4.4349,-1.3516 1.34324,0.2328 2.80904,1.23126 3.20268,2.18158 l 0.32888,0.79401 0.95008,-1.05163 c 1.0802,-1.19564 1.88345,-1.66267 3.30104,-1.9193 2.22115,-0.40209 4.61507,1.05401 5.20067,3.16331 0.16299,0.58703 0.29104,3.22248 0.29187,6.00686 l 0.003,4.96093 h -0.92604 -0.92604 l -0.003,-4.56406 c 0,-2.51023 -0.12396,-5.00513 -0.27368,-5.54421 -0.80383,-2.8942 -5.02248,-2.74076 -6.49944,0.23639 -0.4169,0.84032 -0.51509,1.74683 -0.58929,5.44011 l -0.089,4.43177 h -1.02061 -1.02061 l -0.0816,-5.31391 -0.0816,-5.31391 -0.86407,-0.7715 c -1.51275,-1.3507 -3.79561,-0.94448 -5.22519,0.92981 -0.85678,1.12329 -1.17417,3.1007 -1.18146,7.36066 l -0.005,3.10885 h -0.92604 -0.92604 z m 44.71458,0.79375 v -6.08542 h -1.19063 c -1.14651,0 -1.19062,-0.0294 -1.19062,-0.79375 0,-0.76435 0.0441,-0.79375 1.19062,-0.79375 h 1.19063 v -2.64583 -2.64584 h 0.92604 0.92604 v 2.64584 2.64583 h 1.45521 c 1.4405,0 1.45521,0.008 1.45521,0.79375 0,0.78573 -0.0148,0.79375 -1.45521,0.79375 h -1.45521 v 6.08542 6.08541 h -0.92604 -0.92604 z m 7.40833,-0.79375 v -6.87917 h 0.92604 0.92605 v 6.87917 6.87916 h -0.92605 -0.92604 z m 23.28334,-2.77813 v -9.65729 h 0.92604 0.92604 v 5.44284 5.44284 l 2.39125,-2.06941 c 3.98306,-3.44697 3.73928,-3.29929 5.2963,-3.20857 l 1.38739,0.0808 -3.73046,3.2175 -3.73047,3.21749 3.95549,3.5162 c 2.17551,1.93391 3.9555,3.5519 3.9555,3.59553 0,0.0436 -0.63254,0.0793 -1.40563,0.0793 h -1.40562 l -3.29073,-2.93663 -3.29073,-2.93664 -0.0748,2.93664 -0.0748,2.93663 h -0.91739 -0.91736 z m 29.63333,2.77813 v -6.87917 h 1.05833 c 1.03812,0 1.05833,0.0181 1.05833,0.94956 v 0.94956 l 0.82548,-0.69458 c 1.39099,-1.17046 2.39093,-1.55767 4.06932,-1.57578 1.1903,-0.0129 1.85343,0.13427 2.65038,0.58803 2.22904,1.26912 2.76826,3.1444 2.77156,9.63894 l 0.003,3.9026 h -1.05833 -1.05834 v -4.62485 c 0,-5.98612 -0.38539,-7.06839 -2.7219,-7.64395 -1.90092,-0.46826 -4.60123,1.30826 -5.18506,3.41123 -0.16069,0.5788 -0.29284,2.80854 -0.29364,4.95497 l -0.002,3.9026 h -1.05833 -1.05833 z M -99.29906,217.93214 c -0.29104,-0.29104 -0.52917,-0.76729 -0.52917,-1.05833 0,-0.71805 0.91946,-1.5875 1.67879,-1.5875 1.31473,0 1.99738,1.84568 1.01236,2.73711 -0.65059,0.58878 -1.51856,0.55213 -2.16198,-0.0913 z m 108.7437503,0 c -0.29104,-0.29104 -0.52917,-0.76729 -0.52917,-1.05833 0,-0.71805 0.91945,-1.5875 1.6787897,-1.5875 1.31472,0 1.99738,1.84568 1.01236,2.73711 -0.65059,0.58878 -1.51857,0.55213 -2.1619797,-0.0913 z m 76.7291597,0 c -0.29104,-0.29104 -0.52916,-0.76729 -0.52916,-1.05833 0,-0.71805 0.91945,-1.5875 1.67878,-1.5875 1.31473,0 1.99738,1.84568 1.01236,2.73711 -0.65059,0.58878 -1.51856,0.55213 -2.16198,-0.0913 z m 108.74375,0 c -0.29104,-0.29104 -0.52917,-0.76729 -0.52917,-1.05833 0,-0.71805 0.91946,-1.5875 1.67878,-1.5875 1.31474,0 1.9974,1.84568 1.01238,2.73711 -0.65061,0.58878 -1.51858,0.55213 -2.16199,-0.0913 z m 15.07953,-4.73007 c -1.85066,-0.60497 -3.25263,-1.7739 -4.06911,-3.39273 -0.61396,-1.21724 -0.54276,-1.4022 0.53973,-1.4022 0.80563,0 1.1227,0.18215 1.90217,1.09276 1.12985,1.31998 2.22784,1.81766 4.01018,1.81766 3.26387,0 5.28555,-1.95156 5.29018,-5.1067 l 0.003,-1.00565 -0.87413,0.66674 c -2.23774,1.70681 -5.217,1.99519 -7.62363,0.73794 -6.44927,-3.36913 -4.53273,-14.41188 2.61374,-15.0599 1.90442,-0.17269 3.11502,0.18795 4.70504,1.40164 l 1.17898,0.89993 v -0.92429 c 0,-0.90442 0.023,-0.9243 1.07556,-0.9243 h 1.07558 l -0.0834,8.13594 c -0.0803,7.83832 -0.10562,8.18421 -0.69159,9.45556 -1.23978,2.6898 -2.78323,3.63196 -6.13865,3.74717 -1.23693,0.0425 -2.54738,-0.0203 -2.91214,-0.13957 z m 5.03904,-8.50432 c 0.57613,-0.29392 1.37507,-1.02919 1.77541,-1.63395 0.61468,-0.92851 0.7412,-1.43186 0.81343,-3.23591 0.074,-1.84694 0,-2.29768 -0.54946,-3.327 -2.11272,-3.96116 -7.17195,-3.74643 -9.09629,0.38606 -1.41412,3.0368 -0.28382,6.76489 2.41646,7.97018 1.20796,0.53919 3.42009,0.46321 4.64045,-0.15938 z m 71.34974,8.33086 c -1.57269,-0.57719 -2.52045,-1.38186 -3.36791,-2.85948 -0.43061,-0.75081 -0.78407,-1.45441 -0.78542,-1.56355 -0.003,-0.10914 0.50353,-0.19386 1.122,-0.18825 0.97456,0.009 1.19501,0.12348 1.65364,0.8599 1.7921,2.87765 7.51189,2.6166 8.94734,-0.40836 0.23706,-0.49962 0.50932,-1.61158 0.60499,-2.47101 l 0.17394,-1.5626 -0.8944,0.84649 c -1.25537,1.18814 -2.57643,1.66706 -4.59853,1.66706 -2.07135,0 -3.13624,-0.40156 -4.62016,-1.74218 -1.66534,-1.50454 -2.20117,-2.75127 -2.33738,-5.43851 -0.14478,-2.85643 0.33861,-4.45984 1.86851,-6.19789 2.612,-2.96739 6.52156,-3.31901 9.33802,-0.83987 l 1.17496,1.03425 v -1.08082 c 0,-1.06184 0.0164,-1.08082 0.9398,-1.08082 h 0.93978 l -0.0799,8.40052 c -0.0764,8.03294 -0.10501,8.44745 -0.654,9.47286 -0.81536,1.52302 -2.08825,2.67493 -3.47982,3.14909 -1.47093,0.50119 -4.58402,0.50286 -5.94548,0.003 z m 5.17924,-8.16076 c 3.26697,-1.39784 4.15169,-6.76744 1.56874,-9.52105 -0.8559,-0.91244 -2.54867,-1.74245 -3.5701,-1.75052 -1.01266,-0.008 -2.55434,0.67447 -3.45532,1.52958 -1.28427,1.2189 -1.85629,2.62748 -1.86386,4.58966 -0.006,1.49888 0.11041,1.94898 0.78465,3.03954 1.02552,1.65875 2.42668,2.46693 4.28693,2.47273 0.76867,0.002 1.7807,-0.15958 2.24896,-0.35994 z m -389.67358,2.52733 c -0.58209,-0.27544 -1.2862,-0.7569 -1.56469,-1.06991 -0.45251,-0.50859 -0.46704,-0.64258 -0.13658,-1.26003 0.50257,-0.93908 0.95784,-1.05749 1.64858,-0.4288 1.4252,1.29716 2.43451,1.42417 3.59012,0.45179 1.79953,-1.51421 1.33915,-2.79225 -1.71574,-4.76298 -2.69355,-1.73764 -3.40103,-2.85309 -3.21701,-5.07213 0.20378,-2.45741 1.85963,-3.90517 4.23308,-3.70114 1.29458,0.11129 3.27204,1.18486 3.55877,1.93206 0.0847,0.22059 -0.1133,0.68109 -0.44417,1.03329 l -0.59688,0.63534 -0.86721,-0.66145 c -0.47696,-0.3638 -1.28625,-0.72945 -1.79841,-0.81256 -0.7642,-0.12402 -1.0533,-0.029 -1.61209,0.52978 -1.36092,1.36091 -0.77176,2.52798 2.2724,4.5014 2.6714,1.73177 2.99983,2.23372 2.99983,4.58467 0,2.0434 -0.35338,2.80941 -1.79132,3.88298 -1.00462,0.75006 -3.21099,0.85541 -4.55868,0.21769 z m 47.36041,0.1756 c -1.33002,-0.49837 -2.21202,-1.25553 -2.97554,-2.55437 -0.72767,-1.23786 -0.72873,-1.24717 -0.81296,-7.12646 l -0.0843,-5.88698 h 0.91663 0.91662 l 0.10186,5.22552 c 0.11382,5.83932 0.33962,6.75138 1.91197,7.72315 2.1227,1.3119 4.75011,0.66332 5.83063,-1.43929 0.483,-0.93987 0.55444,-1.64325 0.63825,-6.28386 l 0.0944,-5.22552 h 0.91663 0.91662 l -0.0843,5.88698 -0.0843,5.88698 -0.74223,1.2627 c -1.10522,1.88023 -2.41374,2.63454 -4.75553,2.74139 -1.05082,0.0479 -2.26776,-0.0467 -2.70432,-0.21024 z m 29.43861,0.0437 c -4.9872,-1.50166 -6.89479,-8.70312 -3.51764,-13.27966 2.39496,-3.24552 6.8647,-3.80008 9.80044,-1.21594 l 1.18797,1.04569 v -4.12353 -4.12352 h 0.92604 0.92604 v 10.71562 10.71563 h -0.92604 c -0.9072,0 -0.92604,-0.022 -0.92604,-1.08082 v -1.08082 l -1.17497,1.03425 c -1.71295,1.50779 -4.13499,2.04373 -6.2958,1.3931 z m 4.90968,-2.8201 c 1.71069,-1.20103 2.4288,-2.71439 2.4288,-5.11853 0,-1.69779 -0.1072,-2.16674 -0.74224,-3.24707 -2.29559,-3.90531 -7.16507,-3.65969 -9.08257,0.45813 -2.49238,5.35235 2.86973,11.08525 7.39601,7.90747 z m 43.50907,2.83583 c -2.07711,-0.67055 -3.8098,-2.4973 -4.58638,-4.83539 -0.62467,-1.8807 -0.44288,-5.49097 0.35859,-7.1214 0.70156,-1.42719 2.11458,-2.96041 3.28712,-3.56676 1.16799,-0.60399 3.6517,-0.77442 5.16392,-0.35435 2.6485,0.73571 5.0996,4.17721 5.0996,7.16017 v 1.02795 h -6.21771 c -3.41974,0 -6.21771,0.0975 -6.21771,0.21656 0,0.83271 0.95222,3.12052 1.61119,3.87104 2.23201,2.54212 6.27248,2.03895 8.16072,-1.01628 0.57765,-0.93466 0.59683,-0.94239 1.36013,-0.54767 0.99829,0.51623 0.96832,1.03039 -0.14878,2.5528 -1.3393,1.82521 -2.92749,2.66009 -5.25654,2.76327 -1.03964,0.0461 -2.21601,-0.0214 -2.61415,-0.14994 z m 6.81995,-10.48325 c -0.64721,-1.54898 -1.40505,-2.42156 -2.60957,-3.00465 -2.63799,-1.27703 -5.46326,-0.071 -6.68552,2.85387 -0.20507,0.49072 -0.37284,0.9372 -0.37284,0.99219 0,0.055 2.26378,0.1 5.03063,0.1 h 5.03063 z m 49.79957,10.35449 c -2.00052,-0.71399 -3.11871,-1.84542 -4.21835,-4.26829 -0.46418,-1.02275 -0.59587,-1.8051 -0.60325,-3.58399 -0.009,-2.08836 0.0668,-2.42489 0.91659,-4.08931 1.51438,-2.96593 3.79302,-4.29136 6.89832,-4.01257 3.50742,0.31488 6.03415,2.99758 6.49194,6.8927 l 0.17635,1.50044 H 87.10688 80.8233 l 0.18382,0.97988 c 0.43073,2.29599 2.21621,4.39596 4.02634,4.73554 2.00313,0.37579 4.32531,-0.69005 5.40102,-2.479 0.32657,-0.5431 0.62438,-1.02882 0.66179,-1.07938 0.13906,-0.18791 1.69217,0.87855 1.69217,1.16194 0,0.60018 -1.6242,2.71991 -2.60475,3.39943 -1.79291,1.24248 -4.38599,1.58098 -6.45483,0.84261 z m 7.20749,-9.66046 c 0,-1.79034 -2.77842,-4.2285 -4.83714,-4.24475 -2.07113,-0.0163 -4.10662,1.6346 -4.80446,3.8968 l -0.18364,0.59531 h 4.91262 c 2.87064,0 4.91262,-0.10282 4.91262,-0.24736 z m 43.07105,9.72112 c -1.40185,-0.37274 -3.22921,-2.09504 -4.0963,-3.86077 -0.66173,-1.34755 -0.7404,-1.78526 -0.72349,-4.02549 0.0218,-2.88454 0.50642,-4.28922 2.0814,-6.03253 2.83967,-3.14318 8.0524,-2.80894 10.58332,0.67862 0.94465,1.30171 1.32379,2.3251 1.61592,4.36172 l 0.18027,1.25677 h -6.24775 c -6.95554,0 -6.5499,-0.12399 -5.98927,1.8308 0.41121,1.43381 1.5605,2.86848 2.765,3.45156 2.58079,1.24934 4.98521,0.24372 7.05391,-2.95022 0.1751,-0.27034 1.82459,0.58179 1.82719,0.94393 0.008,1.07186 -2.85559,3.87404 -4.44514,4.35028 -1.21962,0.3654 -3.2209,0.36337 -4.60506,-0.005 z m 7.0518,-10.06907 c -0.5557,-1.80145 -1.77925,-3.09524 -3.44802,-3.64599 -1.20335,-0.39714 -2.89593,-0.18693 -3.77411,0.46873 -0.97968,0.73144 -2.09687,2.21059 -2.29984,3.04496 l -0.177,0.72761 h 4.94131 4.9413 z m -215.48743,3.10885 v -6.74687 h -1.19062 c -1.18433,0 -1.19062,-0.005 -1.19062,-0.92605 0,-0.92114 0.006,-0.92604 1.19062,-0.92604 h 1.19062 v -2.91041 -2.91042 h 1.05834 1.05833 v 2.91042 2.91041 h 1.32292 1.32291 v 0.92604 0.92605 h -1.32291 -1.32292 v 6.74687 6.74688 h -1.05833 -1.05834 z m 78.8458403,-0.92604 v -7.67292 h 0.92604 0.92604 v 7.67292 7.67292 h -0.92604 -0.92604 z m 52.8253697,7.47448 c -0.0955,-0.15473 -5.61131,-13.36959 -6.18435,-14.81667 -0.0928,-0.23435 0.20495,-0.32954 1.02181,-0.32664 l 1.15279,0.004 1.69617,4.16311 c 0.9329,2.2897 1.92436,4.69888 2.20326,5.35372 l 0.50708,1.19063 2.18209,-5.29167 2.18208,-5.29166 1.13956,-0.0831 c 1.00525,-0.0733 1.11899,-0.0265 0.96502,0.39687 -0.096,0.26396 -1.51064,3.72345 -3.14365,7.68774 -2.66279,6.46417 -3.30909,7.68208 -3.72186,7.01355 z m 51.15587,-7.47448 v -7.67292 h 1.05833 c 0.99143,0 1.05834,0.0485 1.05834,0.76729 v 0.7673 l 0.88399,-0.88399 c 1.01614,-1.01614 1.90681,-1.31073 3.21879,-1.0646 1.02632,0.19254 1.1919,0.70795 0.5307,1.65195 -0.28087,0.401 -0.65626,0.5545 -1.31067,0.53595 -1.13407,-0.0322 -1.89183,0.60176 -2.62368,2.19485 -0.47792,1.04034 -0.56011,1.83351 -0.65111,6.28386 l -0.10415,5.09323 h -1.03027 -1.03027 z m 50.8,0 v -7.67292 h 1.05833 1.05834 v 1.07107 1.07107 l 0.9558,-0.92826 c 2.76358,-2.68396 7.01173,-2.14881 8.6033,1.08377 0.59264,1.20375 0.63243,1.59984 0.71901,7.16121 l 0.0917,5.88698 h -1.08386 -1.08384 l -0.006,-5.35782 c -0.005,-4.73547 -0.0656,-5.48958 -0.52067,-6.49225 -0.55177,-1.21567 -1.6832,-1.90827 -3.11738,-1.90827 -1.24513,0 -3.07586,1.35853 -3.79248,2.81426 -0.58537,1.18912 -0.64006,1.65326 -0.7206,6.11543 l -0.0872,4.82865 h -1.03732 -1.03733 z m 28.575,0 v -7.67292 h 0.92604 0.92604 v 7.67292 7.67292 h -0.92604 -0.92604 z m 48.15417,0 v -7.67292 h 0.92604 0.92604 v 7.67292 7.67292 h -0.92604 -0.92604 z m 18.25624,0 v -7.67292 h 0.92605 c 0.91143,0 0.92604,0.0175 0.92604,1.11203 v 1.11203 l 0.99219,-0.96682 c 1.76815,-1.72294 4.03309,-2.23646 6.08422,-1.37944 1.26339,0.52788 1.8474,1.07275 2.54146,2.37116 0.52125,0.97512 0.57274,1.5316 0.65497,7.07761 l 0.0892,6.01927 h -0.90575 -0.90572 l -0.17529,-5.43493 c -0.19523,-6.05385 -0.39806,-6.92605 -1.81094,-7.78746 -1.99609,-1.21698 -4.44566,-0.16612 -5.84329,2.50676 -0.48681,0.93098 -0.5674,1.63938 -0.66956,5.88698 l -0.11615,4.82865 h -0.89374 -0.89371 z M 4.3263203,188.60867 c -0.50889,-0.56232 -0.58253,-2.17608 -0.12038,-2.63823 0.58065,-0.58065 2.00791,-0.3841 2.48369,0.34203 1.08533,1.65643 -1.05783,3.73873 -2.36331,2.2962 z m 183.3345297,0.0685 c -1.16581,-1.16582 -0.55608,-3.02421 0.99224,-3.02421 1.12559,0 1.50201,0.40735 1.50201,1.62542 0,1.51515 -1.5235,2.36954 -2.49425,1.39879 z m 48.17588,-0.0685 c -0.5089,-0.56232 -0.58253,-2.17608 -0.12038,-2.63823 0.58065,-0.58065 2.00789,-0.3841 2.48369,0.34203 1.08533,1.65643 -1.05783,3.73873 -2.36331,2.2962 z m 19.93503,-3.6116 c 0,-0.0697 2.98165,-6.94554 6.62591,-15.27968 3.81349,-8.7212 6.57937,-15.3776 6.51629,-15.68216 -0.0603,-0.29104 -6.38738,-14.57854 -14.06022,-31.75 -7.67284,-17.17146 -14.0112,-31.369664 -14.08523,-31.551565 -0.1048,-0.257497 0.94084,-0.33034 4.72234,-0.328972 l 4.85696,0.0019 11.76356,26.321447 c 6.46996,14.47681 11.85563,26.2294 11.96813,26.11688 0.11253,-0.11252 5.30559,-11.92819 11.54015,-26.25706 l 11.33557,-26.052584 4.67598,-0.07225 4.67598,-0.07225 v 0.642633 c 0,0.464672 -33.06749,76.725181 -40.13906,92.569061 l -0.67903,1.52136 h -4.85868 c -2.67226,0 -4.85865,-0.057 -4.85865,-0.12671 z M 27.45127,173.19731 c -5.11227,-0.47376 -11.71844,-2.02695 -14.92754,-3.50965 -1.08324,-0.50048 -2.5268497,-1.4237 -3.2080397,-2.0516 -2.74703,-2.53213 -3.07874,-4.76185 -1.5922,-10.70265 1.43448,-5.73271 1.09555,-7.48842 -1.97926,-10.25293 -1.40973,-1.26747 -5.39406003,-3.43541 -8.11159,-4.41365 -2.83436,-1.02029 -8.4846303,-6.4807 -9.9988303,-9.66285 -1.52496,-3.20474 -2.07971,-7.63416 -1.37206,-10.95532 1.00178,-4.70163 3.63761,-8.47198 9.6750103,-13.83938 8.216,-7.30423 10.06805,-9.578159 10.9916,-13.49541 0.50632,-2.147544 0.50418,-4.715936 -0.006,-6.699616 -0.81096,-3.155828 -1.96265,-5.108368 -7.63311003,-12.940948 -1.89517997,-2.617817 -3.44830997,-5.793478 -4.01780997,-8.215162 -1.56205,-6.642346 2.20852,-15.619979 7.37168,-17.551763 3.05965,-1.144765 5.94946,-0.728943 12.4750597,1.795058 6.68966,2.587458 9.55865,2.880878 12.0554,1.232937 0.87493,-0.577482 0.9718,-0.793605 1.68541,-3.760089 2.92683,-12.166923 7.57012,-16.736063 13.87507,-13.653493 2.81531,1.37645 5.71885,4.58619 9.9486,10.9978 7.57189,11.477708 9.90648,18.788479 7.85958,24.612271 -0.30056,0.855168 -1.43791,2.87896 -2.52744,4.497316 -2.72183,4.042929 -3.13723,5.057013 -3.27407,7.992785 -0.24585,5.274167 1.56669,9.336797 8.23805,18.464794 3.05904,4.18548 4.50129,6.53829 5.37426,8.7673 0.61986,1.58269 0.7263,2.24875 0.73942,4.62696 0.0141,2.55292 -0.0465,2.90009 -0.74697,4.28269 -0.95846,1.8917 -2.70799,3.68456 -6.24858,6.40332 -3.53557,2.71493 -5.35796,4.59644 -6.2728,6.47635 -0.63684,1.30865 -0.72495,1.79784 -0.72117,4.00431 0.002,1.38245 0.10167,3.34698 0.22069,4.36563 0.2078,1.77841 0.18945,1.87711 -0.46115,2.48126 -0.53205,0.49406 -1.10863,0.67139 -2.68489,0.82572 -1.10404,0.1081 -2.08796,0.27716 -2.18648,0.37569 -0.0985,0.0985 0.41195,0.67785 1.1344,1.28738 2.54051,2.14346 2.76875,2.44168 2.76875,3.61779 0,2.31779 -2.52065,8.13312 -6.88582,15.88611 -2.86055,5.08063 -5.57127,7.28602 -10.1798,8.2821 -2.47949,0.53591 -6.32534,0.71182 -9.3778,0.42894 z m 7.07238,-3.95787 c 4.06136,-0.65907 6.15871,-2.01631 8.18358,-5.29578 1.80734,-2.92715 5.71219,-10.54826 6.56352,-12.81005 l 0.67048,-1.78129 -1.9852,-1.90939 c -2.08857,-2.00881 -2.79259,-3.21806 -2.79259,-4.79663 0,-1.79775 1.96341,-3.02604 4.84245,-3.02938 l 1.27057,-0.002 -0.17843,-2.199 c -0.49554,-6.10717 1.7164,-10.21072 8.08833,-15.00524 4.85256,-3.65129 6.17904,-5.36161 6.15109,-7.93107 -0.029,-2.66986 -1.59446,-5.7115 -6.05962,-11.77396 -6.45842,-8.76874 -8.331,-13.077617 -8.39385,-19.314582 -0.0426,-4.231929 0.52648,-6.006854 3.21493,-10.026246 2.78165,-4.158747 3.03901,-4.729829 3.17777,-7.051508 0.26858,-4.493763 -2.81927,-11.322212 -9.43758,-20.87018 -3.51762,-5.07472 -6.61836,-7.95944 -8.5521,-7.95629 -2.45149,0.004 -4.51438,3.6577 -6.64981,11.777867 -1.32821,5.0506 -1.3571,5.093619 -4.40251,6.55537 -1.40848,0.67605 -2.1262,0.842928 -4.01342,0.933157 -2.99642,0.143261 -5.33327,-0.382101 -10.41095,-2.340544 -4.7487597,-1.831579 -5.8780997,-2.150568 -7.6708997,-2.166679 -2.58461,-0.02323 -4.16934,1.254427 -5.81313003,4.686719 -1.1775,2.458656 -1.56338997,4.368392 -1.41179997,6.986987 0.10986997,1.897898 0.26778997,2.436 1.34788997,4.592849 0.67289,1.343695 2.60171003,4.348081 4.28626003,6.676414 5.8357397,8.065942 7.4200797,12.764612 6.3788497,18.917709 -0.32041,1.89347 -0.72976,3.133352 -1.6593497,5.02602 -1.34344,2.735297 -1.87795,3.315957 -12.05699,13.097937 -4.39191,4.22059 -5.69311,5.93436 -6.72512,8.85745 -1.0198303,2.88857 -0.7158403,7.01566 0.72474,9.83943 0.64658,1.26741 2.45021,3.30614 4.88227,5.51868 1.55886,1.41815 2.34823,1.90448 4.42604997,2.72686 5.62616003,2.22679 10.03319973,5.76063 11.31784973,9.07536 0.92148,2.37767 0.84679,5.44947 -0.22884,9.41112 -1.1055,4.07163 -1.10959,5.44307 -0.02,6.68407 1.10589,1.25954 3.62298,2.41245 7.28757,3.33796 6.42777,1.62336 11.89104,2.16712 15.64796,1.55745 z m -11.4789,-11.49626 c -3.50761,-0.76312 -6.59389,-3.10571 -7.94481,-6.03036 -0.65927,-1.42728 -0.76046,-1.96318 -0.76046,-4.02759 0,-2.08206 0.0947,-2.57408 0.75364,-3.91603 1.44551,-2.9438 4.60281,-5.30495 8.05183,-6.02147 2.0895,-0.43409 5.6457,-0.18221 7.53003,0.53334 4.48019,1.70129 7.3605,5.88779 7.01469,10.19581 -0.35831,4.46381 -3.9596,8.23244 -8.85901,9.27065 -2.172,0.46025 -3.6555,0.45914 -5.78591,-0.004 z m -3.0321,-24.36398 c -0.28785,-0.34683 0.63496,-6.55292 5.58999,-37.594197 3.26412,-20.448334 6.01957,-37.317107 6.12324,-37.486157 0.25823,-0.421105 13.99109,-0.586843 14.75488,-0.178072 0.35551,0.190264 0.53476,0.554196 0.53476,1.085725 0,1.424247 -11.67537,73.913051 -11.96001,74.256011 -0.20876,0.25154 -2.02482,0.3321 -7.48686,0.3321 -6.23018,0 -7.25815,-0.0565 -7.556,-0.41541 z m -113.44676,28.42932 c -5.35088,-0.88979 -11.61243,-4.34825 -14.87263,-8.21465 l -1.08576,-1.28765 0.71891,-0.85529 c 0.3954,-0.4704 1.68416,-1.95231 2.86391,-3.29313 l 2.14499,-2.43784 1.45521,1.41014 c 4.39836,4.26215 8.52834,6.24367 13.01334,6.24367 10.55449,0 16.53176,-11.11025 9.83118,-18.27372 -1.58683,-1.69644 -5.17329,-4.07494 -10.14451,-6.7277 -7.80489,-4.16488 -12.28965,-7.76106 -14.35534,-11.51108 -1.7074,-3.0996 -2.18348,-5.16559 -2.16443,-9.39271 0.0149,-3.295 0.0962,-3.94425 0.73615,-5.87759 1.74435,-5.269582 5.97887,-9.476584 11.42053,-11.346305 1.7678,-0.607404 2.68576,-0.745567 5.60362,-0.843404 5.03145,-0.168704 8.63375,0.752208 12.8698,3.290112 1.97764,1.184844 5.5339,3.924327 6.7626,5.209427 l 0.8969,0.938059 -2.91763,2.979911 -2.91763,2.97991 -0.97131,-0.78173 c -3.42432,-2.75597 -4.70144,-3.64937 -6.40252,-4.478853 -5.4377,-2.651535 -10.56372,-2.130301 -14.13091,1.436883 -2.39222,2.39223 -3.27296,5.27585 -2.51501,8.23442 1.08079,4.21871 4.01078,6.81854 13.37684,11.86947 7.87421,4.2464 12.41775,8.01814 14.36158,11.92199 1.94986,3.91598 2.56683,8.85035 1.65097,13.2042 -1.61534,7.67902 -7.86464,13.85551 -15.69878,15.51586 -1.95201,0.41371 -7.27473,0.46263 -9.53007,0.0876 z M 107.6051,161.392 c -15.89219,-1.70193 -28.78545,-12.92738 -32.15348,-27.99427 -0.67241,-3.008 -0.81023,-10.02413 -0.26506,-13.49375 1.17686,-7.49002 4.57921,-14.30331 9.86365,-19.75221 5.18756,-5.349006 11.57849,-8.835296 19.41151,-10.589103 2.4483,-0.548169 3.42161,-0.614939 8.96421,-0.614939 5.53667,0 6.51748,0.06713 8.95449,0.612857 7.52913,1.686028 13.92327,4.909085 18.17612,9.161939 1.88348,1.883476 4.61939,5.506076 4.61939,6.116506 0,0.29474 -6.67076,4.62306 -7.10127,4.60765 -0.0961,-0.003 -0.53196,-0.49122 -0.96852,-1.08397 -1.30697,-1.77455 -4.52829,-4.67604 -6.92835,-6.24048 -8.88978,-5.794651 -21.73886,-6.379221 -31.22465,-1.42057 -6.87288,3.59277 -12.3333,10.36565 -14.11744,17.5107 -0.70866,2.83802 -0.95547,7.8969 -0.5297,10.8573 1.11171,7.72972 5.6886,14.95372 12.18623,19.23431 2.80701,1.84924 5.39826,2.9905 8.97669,3.95361 2.32388,0.62546 2.97003,0.68176 7.82472,0.68176 4.86711,0 5.49694,-0.0552 7.85007,-0.68819 5.6825,-1.52853 9.93903,-4.01702 14.19678,-8.29985 1.50274,-1.5116 2.80222,-2.74836 2.88772,-2.74836 0.44051,0 6.94625,4.41692 6.94693,4.71645 0.001,0.49956 -2.02678,3.06001 -4.00261,5.05372 -5.43414,5.4833 -12.77126,8.97191 -21.47029,10.20859 -2.45934,0.34962 -9.63186,0.47431 -12.09714,0.2103 z M -31.56573,129.69357 V 98.869603 h -6.08541 -6.08542 v -3.96875 -3.96875 h 6.08542 6.08541 V 78.099811 65.267519 h 4.49792 4.49792 v 12.832292 12.832292 h 7.01146 7.0114503 v 3.96875 3.96875 h -7.0114503 -7.01146 v 30.823967 30.82395 h -4.49792 -4.49792 z M 172.42802,111.83419 V 63.944602 h 4.62896 4.62897 l 0.0674,26.969978 0.0674,26.96997 15.85453,-13.7408 15.85454,-13.740814 h 6.56889 c 3.61291,0 6.56786,0.0893 6.56654,0.198438 0,0.10914 -8.50652,7.564609 -18.90046,16.567706 l -18.89808,16.36927 20.02494,17.9957 c 11.0137,9.89763 20.07455,18.03935 20.13519,18.09271 0.0606,0.0534 -2.86584,0.097 -6.50327,0.097 h -6.6135 L 198.79922,144.37969 181.68843,129.0356 v 15.34409 15.34408 h -4.63021 -4.6302 z"
       id="path42"
       inkscape:connector-curvature="0" />
  </g>
</svg>
