<?xml version="1.0" encoding="UTF-8"?>
<svg id="Logo_Kleur" data-name="Logo Kleur" xmlns="http://www.w3.org/2000/svg" viewBox="0 0 750.46 364.63">
  <defs>
    <style>
      .cls-1 {
        fill: #fff;
      }
    </style>
  </defs>
  <path id="path20" class="cls-1" d="M591.75,286.21c-1.7,0-1.8.7-1.7,2,0,.6.3,1.4-.2,2-6.5-5.7-12.9-6-18.1-.9-5.3,5.2-5.8,14.6-1.1,20,2.3,2.9,5.8,4.6,9.5,4.6,4,0,7.1-1.8,9.9-4.7v2.7c-.1,4.5-1.9,7.2-5.6,8.5-4.3,1.5-9.4.5-11.7-2.7-1.3-1.9-2.7-2.1-4.9-1.8,1,3.5,3.6,6.2,7,7.5,9.8,3.9,18.3-1.8,18.5-12.4.1-7.7,0-15.3.1-22.9,0-1.1,0-1.9-1.7-1.9h0ZM580.45,310.61c-5.7,0-9.7-4.5-9.6-10.7s4.5-10.9,10-10.8,9.5,4.9,9.3,11.1c-.1,6.4-4,10.5-9.7,10.4Z"/>
  <path id="path22" class="cls-1" d="M730.05,286.31c-1.4,0-1.7.5-1.6,1.8.2.8.1,1.6-.2,2.3-6.3-5.7-12.9-6-18-.9-5.3,5.2-5.8,14.6-1.2,20,2,2.5,4.9,4.2,8.1,4.6,4.5.5,8.1-1.2,11.3-4.8v2.8c0,4.5-1.8,7.2-5.5,8.5-4.3,1.5-9.4.6-11.7-2.6-.9-1.7-2.9-2.5-4.8-1.8,1.8,6.2,8.4,9.7,15.6,8.3,6-1.2,9.5-5.6,9.7-12.3.2-8,0-15.9.2-23.8-.1-1.6-.3-2.2-1.9-2.1h0ZM727.55,305.21c-1.7,4.1-6.2,6.4-10.5,5.3-5-1.1-7.9-4.8-7.9-10.9,0-3.8,2.1-7.3,5.4-9.1,4.5-2.5,10.1-.9,12.6,3.6.1.1.1.3.2.4,1.7,3.3,1.8,7.2.2,10.7Z"/>
  <path id="path24" class="cls-1" d="M330.15,359.91c-2.8-2.7-2.8-2.8,0-5.2,1-.8,1-1.3.1-2.1-.6-.6-.9-1.7-2.4-.6-3.3,2.5-3.3,2.4-6.4-.6-.6-.7-1.3-1.4-2-2.1-1-1-2.5-2-2.7-3.2-.3-1.4,1.7-2.1,2.6-3.2,1.5-1.8,3.1-3.7,2.6-6.4-.6-3-3.2-5.2-6.2-5.3-3.8-.4-7.3,1.2-8.4,4.1-.5,1-.5,2.2-.3,3.2.4,1.4,1,2.7,1.9,3.8q2,2.9-.6,5.4c-1.8,1.5-3.3,3.3-4.3,5.4-2.5,5.5,1,11.2,7.1,11.5,4.6.2,8.4-1.6,11.7-4.4,1.1-.9,1.7-1,2.6.2,1.9,2.4,4.1,4.3,8.1,2.8-1.1-1.2-2.3-2.2-3.4-3.3h0ZM314.65,334.51c2.2,0,3.9,1.3,3.9,2.9,0,1.4-3.3,5.7-4.4,5.6-.9,0-3.5-4.4-3.5-5.6.1-1.7,1.8-2.9,4-2.9ZM314.05,361.41c-2.3.7-4.7-.1-6.2-1.9-1.4-1.9-1.2-3.8,0-5.8.3-.4.4-.8.7-1.2,1.3-1.6,2.8-3.5,4.6-4,2.1-.5,2.7,2.3,4.2,3.4,1.7,1.3,3.3,2.7,5.3,4.3-3.3,2.4-5.6,4.4-8.6,5.2Z"/>
  <path id="path26" class="cls-1" d="M175.25,277.91c0-1.3.1-2.1-1.7-2.2-2.1,0-1.6,1.1-1.6,2.2v13.2c-.9-.9-1.4-1.4-1.8-1.9-2.8-3.1-7.1-4.2-11-2.9-5.9,1.6-8.9,6-9.6,11.7-.9,6,1.1,11.2,6.3,14.7,5,3.3,10.5,2.4,16.3-2.9v2c0,1-.6,2.3,1.5,2.3s1.9-.9,1.9-2.3c-.3-11.3-.4-22.6-.3-33.9h0ZM165.85,310.31c-3.3,1.6-7.3.9-9.8-1.7-3.3-3-4.5-7.8-3-12,1.5-4.8,6.1-8,10.4-7.3,5.2.8,8.6,5.3,8.6,12.2-.2,3.9-2.6,7.3-6.2,8.8Z"/>
  <path id="path28" class="cls-1" d="M458.25,342.91c5.1-6.8,14.3-5.7,16.4,1,1-1.6,2.4-3,3.9-4.1,5.9-3.7,12.9-.6,13.4,6.3.4,5.5.1,11,.2,16.4,0,1.6-1,1-1.8,1.1-1,.1-1.6-.1-1.6-1.4,0-5.2.1-10.3-.1-15.5-.1-4.3-3.5-6.5-7.6-5.2-2.6.8-4.7,2.9-5.3,5.6-.4,1.9-.6,3.8-.5,5.7,0,3-.1,6,0,9.1,0,1.4-.4,1.7-1.7,1.7s-1.7-.5-1.7-1.8c0-4.9.2-9.9-.2-14.8-.3-2.8-1.2-4.9-4.1-5.7s-5.1.4-7,2.4c-2,2.2-2.3,5-2.4,7.8-.1,3.4-.1,6.8-.1,10.3,0,1.2-.2,1.8-1.6,1.8s-1.7-.4-1.7-1.7c.1-7.1.1-14.3,0-21.5,0-1.4.4-1.7,1.7-1.7s1.8.5,1.6,1.8c.2.8.2,1.6.2,2.4h0Z"/>
  <path id="path30" class="cls-1" d="M123.75,342.81c5.7-7.1,14.6-5.1,16.4,1.1,1-1.3,2.1-2.6,3.3-3.6,2.6-2.1,6.1-2.6,9.2-1.3,3.3,1.3,4.7,4.1,4.9,7.3.3,5.4.1,10.8.2,16.2,0,1.5-.9,1.1-1.7,1.2-1.2.1-1.7-.3-1.6-1.5.1-5.1.1-10.2,0-15.3-.1-3.8-3.2-6.3-6.7-5.6-3.1.5-5.5,2.9-6.2,5.9-.4,1.9-.6,3.8-.5,5.7v9.1c0,1.3-.3,1.8-1.7,1.8s-1.7-.4-1.7-1.7c0-4.9.3-9.9-.2-14.8-.4-3.6-1.5-5.1-4.3-5.8-3-.7-5.2.6-7.1,2.8s-2,4.8-2.1,7.4c-.1,3.4-.1,6.8-.1,10.3,0,1.2-.1,1.8-1.6,1.8s-1.8-.6-1.8-1.9c.1-6.9,0-13.8,0-20.7,0-1.1-.4-2.3,1.6-2.3s1.6,1.1,1.6,2.3c.1.3.1.7.1,1.6h0Z"/>
  <path id="path32" class="cls-1" d="M344.55,300.61c3.1.1,6.2,0,9.3,0h7.4q4.5,0,3.5-4.4c-2-8.7-11.3-13.3-18.6-8.8-5.3,3.3-7,8.6-6.6,14.6.4,5.8,4.6,10.9,9.7,12.2,5.6,1.4,11.4-1.1,14.2-6.2.6-1,.8-1.5-.5-2.3-1.6-1.2-1.9-.1-2.6.9-2.1,3.4-6.1,5.1-10,4.4-4-.9-6.8-4.2-7.5-8.5-.2-1.6.2-2,1.7-1.9h0ZM343.55,295.71c1.5-4.1,4.9-6.7,9-6.5,4.4.2,7.6,3,8.9,8.1h-16.8c-1.5,0-1.5-.4-1.1-1.6Z"/>
  <path id="path34" class="cls-1" d="M434.85,300.61c3.1.1,6.2,0,9.3,0h7.4c4.3,0,4.4,0,3.3-4.3-1.3-5.3-4.3-9.2-9.9-10.3-4.7-1.2-9.7.8-12.3,4.9-3.6,4.8-4.1,11.3-1.2,16.6,1.8,4.3,6.1,7,10.7,7,5.3.1,9.1-2.2,11.7-6.7.5-.8.7-1.3-.3-1.9-1.2-.8-2-1-2.9.5-2.1,3.4-6,5.3-9.9,4.6-4-.9-6.9-4.1-7.7-8.5-.3-1.5.1-2,1.8-1.9h0ZM433.85,295.71c1.2-4,4.9-6.7,9.1-6.6,4.5.3,7.9,3.3,8.7,8.1h-16.8c-1.6.1-1.5-.4-1-1.5Z"/>
  <path id="path36" class="cls-1" d="M241.95,300.61c3.1.1,6.2,0,9.3,0h7.4q4.5,0,3.5-4.4c-1.9-8.7-11.4-13.3-18.5-8.9-5.3,3.3-7.1,8.5-6.7,14.6.4,5.8,4.6,10.9,9.7,12.2,5.4,1.4,11.1-.9,14-5.7.5-.7,1.8-1.5.1-2.6-1.5-.9-2-.6-2.9.6-2.1,3.4-6.1,5.2-10,4.4-4-1-7.1-4.3-7.6-8.5-.2-1.3.1-1.8,1.7-1.7ZM240.95,295.91c1.2-4.1,5-6.9,9.2-6.8,4.5.3,8.1,3.7,8.6,8.1h-16.9c-1.2.1-1.3-.2-.9-1.3h0Z"/>
  <path id="path38" class="cls-1" d="M697.45,329.21c-1.2,0-1.6.3-1.6,1.6.1,3.9,0,7.9,0,11.9-7.8-5.7-13.8-5.8-19-.6-4.5,4.5-5.1,11.6-1.2,16.8,2.2,3.2,5.8,5.1,9.6,5.3,4.1.3,7.5-1.4,10.6-4.4v1.9c0,1.1-.3,2.1,1.5,2.1s1.9-.7,1.9-2.1v-30.7c0-1.7-.6-1.7-1.8-1.8h0ZM686.35,361.21c-5.5-.1-9.9-4.6-9.9-10.1.1-5.4,4.4-9.8,9.8-9.9,5.5,0,10,4.4,10,10s-4.4,10-9.9,10h0Z"/>
  <path id="path40" class="cls-1" d="M188.75,338.81c-1.5,0-1.8.4-1.7,1.7,0,.6.3,1.4-.2,2-6.9-5.5-13.7-5.6-18.8-.4-4.7,4.7-5,12.2-.7,17.4,5,5.9,11.5,6.1,19.8.5v1.7c-.1,1.2-.1,2.1,1.6,2,1.6,0,1.7-.7,1.7-2,0-7.1-.1-14.2,0-21.2,0-1.4-.4-1.7-1.7-1.7h0ZM177.45,361.21c-5.5-.2-9.8-4.7-9.8-10.2.1-5.4,4.5-9.8,9.9-9.8s10,4.5,9.9,10c0,5.6-4.5,10-10,10Z"/>
  <path id="path42" class="cls-1" d="M279.85,338.81c-1.8-.1-1.6.9-1.6,2v1.9c-6.7-5.4-13.2-5.8-18.2-1.4-4.9,4.1-6.1,11.1-2.7,16.5,2.1,3.6,5.8,5.9,9.9,6.2,4.2.4,7.8-1.2,11-4.4v2c-.1,1.2-.1,2,1.6,2,1.6,0,1.7-.8,1.7-2v-21c.1-1.3-.2-1.8-1.7-1.8h0ZM268.55,361.21c-5.4-.2-9.7-4.6-9.7-10s4.3-9.8,9.7-10c5.5,0,10,4.5,10,10s-4.5,10-10,10Z"/>
  <path id="path44" class="cls-1" d="M523.25,338.81c-1,0-1.9,0-1.7,1.4.1.9.1,1.8,0,2.7-5.9-5.5-13-6.1-18.1-1.7-5.1,4.3-6.2,11.7-2.5,17.2,1.7,2.7,4.5,4.6,7.6,5.4,4.9,1.1,9.2-.3,13-4.1v1.9c0,1.1-.3,2.1,1.5,2.1s1.8-.8,1.8-2.1v-21.3c.2-1.3-.4-1.6-1.6-1.5ZM511.95,361.21c-5.5,0-10-4.4-10-10s4.4-10,10-10,10,4.4,10,10-4.5,10-10,10Z"/>
  <path id="path46" class="cls-1" d="M711.25,351.61c3.1.1,6.2,0,9.3,0h9.5c1.1,0,1.7-.2,1.6-1.6-.5-7.1-6.7-12.4-13.8-11.9-6.4.5-11.4,5.5-11.9,11.9-.3,6.1,3,11.5,8,13.2,6.1,2.1,12.3.2,15.7-4.7,1.2-1.7.9-2.4-1.1-2.9-1.3-.3-1.3.9-1.8,1.5-2.3,3.1-6.1,4.6-9.9,3.9-4.1-.7-6.5-3.3-7.5-7.3-.3-1.7.2-2.1,1.9-2.1ZM710.15,347.31c1.3-3.8,5-6.2,9-6.1,4.2.1,7.3,2.7,8.8,7.6h-17c-1.6,0-1.2-.6-.8-1.5Z"/>
  <path id="path48" class="cls-1" d="M563.45,351.61c3.2.1,6.4,0,9.5,0h9.8c1.2,0,1.5-.4,1.4-1.5-.4-6.1-5.1-11.1-11.1-11.9-6.9-.8-12.3,3-14.1,9.6-1.6,5.8,1.4,12.5,6.5,15,5.9,2.8,12.9,1.1,16.8-4.2,1.2-1.7.9-2.4-1-3-1.3-.4-1.3.9-1.8,1.5-2.7,3.1-6,4.6-10.1,3.8s-6.4-3.5-7.4-7.4c-.3-1.2-.2-1.9,1.5-1.9h0ZM562.65,347.31c1.3-3.9,5.1-6.4,9.2-6.1,4.4.3,7.5,3,8.5,7.6h-17.1c-1.4,0-.9-.7-.6-1.5h0Z"/>
  <path id="path50" class="cls-1" d="M658.75,290.91c1.7-1.7,2.9-3.1,4.6-4,5.9-3,12.2.1,13.4,6.6.6,3.3.4,6.6.5,10v8.6c0,1.3,0,2-1.7,2s-1.7-.9-1.7-2v-13.3c0-1.3-.1-2.7-.4-4-1-5.2-6.2-7.2-10.5-4-2.3,1.7-3.8,4.4-4,7.3-.4,4.7-.3,9.4-.3,14,0,1.1.3,2.1-1.6,2.1s-1.8-.9-1.8-2.2v-23.6c0-1.2,0-2,1.7-2s1.8.7,1.7,2c.1.5.1,1.2.1,2.5Z"/>
  <path id="path52" class="cls-1" d="M487.95,290.91c1.7-1.8,2.9-3.2,4.8-4.1,5.9-2.8,12,.2,13.3,6.6.4,3,.6,6,.5,9,0,3.3-.1,6.5,0,9.8,0,1.3-.3,1.8-1.7,1.8s-1.7-.4-1.7-1.7c.1-4.5,0-9.1,0-13.6,0-1,0-1.9-.1-2.9-.4-3-1.3-5.6-4.7-6.4s-5.9.7-7.9,3.1c-1.3,1.5-2,3.4-2.2,5.4-.4,4.8-.3,9.5-.3,14.3,0,1.2-.2,1.9-1.6,1.8-1.3,0-1.8-.3-1.8-1.7.1-8.1.1-16.2,0-24.3,0-1.4.4-1.7,1.7-1.7s1.8.5,1.6,1.8c0,.7.1,1.5.1,2.8h0Z"/>
  <path id="path54" class="cls-1" d="M594.35,348.81c3.3-2.9,6.4-5.3,9.1-8,2-2,4.2-2.2,6.9-1.8-4.1,3.6-8,7.1-12,10.5-1.2,1-1.3,1.5,0,2.6,4.3,3.6,8.4,7.4,12.8,11.3-2.8.6-4.9.2-6.9-1.8-3-3-6.3-5.7-10-8.9,0,3.5-.1,6.5,0,9.4,0,1.4-.5,1.6-1.6,1.5s-1.8,0-1.8-1.5c.1-10.5.1-21,0-31.5,0-1.5.7-1.4,1.7-1.5s1.7.2,1.7,1.5c.1,6,.1,11.7.1,18.2h0Z"/>
  <path id="path56" class="cls-1" d="M420.65,338.31c-7.1-.2-13,5.5-13.2,12.6s5.5,13,12.6,13.2h.7c6.9.2,12.6-5.2,12.8-12.1v-.9c.2-6.9-5.3-12.7-12.3-12.9-.2.1-.4.1-.6.1h0ZM420.65,361.21c-5.5,0-9.7-4.5-9.7-10.2,0-5.3,4.3-9.7,9.6-9.8,5.3,0,9.6,4.6,9.6,10.3.1,5.3-4.1,9.6-9.5,9.7q.1,0,0,0h0Z"/>
  <path id="path58" class="cls-1" d="M85.55,338.31c-7-.1-12.7,5.5-12.8,12.5v.5c0,7.3,5.6,12.8,13,12.8s12.8-5.5,12.8-13c.1-6.9-5.4-12.7-12.4-12.8h-.6ZM85.55,361.21c-5.4,0-9.5-4.4-9.5-10s4.2-9.8,9.6-10c5.3,0,9.5,4.6,9.5,10.1.2,5.3-4,9.7-9.3,9.9h-.3Z"/>
  <path id="path60" class="cls-1" d="M102.25,296.01c0,2.5-.1,5.1,0,7.6.2,4.6,3.2,7.6,7.5,7.5s7.2-3.1,7.3-7.7c.1-5.1.1-10.2,0-15.3,0-1.5.4-1.9,1.9-1.9s1.6.8,1.5,1.9c-.2,5.9.6,11.8-.5,17.6-1.1,6.1-5,8.9-11.3,8.7-5.2-.2-9-4-9.6-9.7s-.2-11.4-.4-17.2c0-1.6.9-1.3,1.9-1.3s1.6,0,1.6,1.3c-.1,2.8,0,5.6,0,8.4h.1v.1Z"/>
  <path id="path62" class="cls-1" d="M366.75,343.11c2.3-2.7,4.7-4.3,7.7-4.7,6-.8,10.3,2.7,10.7,9.2.3,4.9.1,9.9.2,14.8,0,1.7-1,1.1-1.9,1.3-1.1.1-1.5-.3-1.5-1.4.1-4.1,0-8.3,0-12.4,0-1-.1-1.9-.2-2.9-.6-6.2-6.9-6.9-10.5-4.4-2.5,1.5-4,4.2-4.2,7.1-.4,4.1-.3,8.3-.2,12.4,0,1.4-.4,1.7-1.7,1.7s-1.7-.5-1.7-1.8c0-7.1.1-14.1,0-21.2,0-1.4.3-1.9,1.8-1.9s1.7.7,1.5,1.9c-.1.4,0,1,0,2.3h0Z"/>
  <path id="path64" class="cls-1" d="M32.15,342.91c2.8-3,5.8-4.8,9.6-4.6,4.1,0,7.7,2.9,8.4,7,1.1,5.7.3,11.6.5,17.4.1,1.6-1.2.8-1.9,1-.9.2-1.4-.1-1.4-1.2.1-3.6,0-7.1,0-10.7v-2.6c-.1-5.1-2.1-7.6-6.1-7.8-4.5,0-8.2,3.3-8.8,7.7-.4,4.4-.5,8.7-.3,13.1,0,1.1-.1,1.8-1.5,1.7-1.1-.1-1.9,0-1.9-1.6.1-7.2.1-14.5,0-21.7,0-1.5.7-1.5,1.9-1.6,1.4-.1,1.6.5,1.5,1.6v2.3h0Z"/>
  <path id="path66" class="cls-1" d="M647.85,343.11c2.3-2.8,4.8-4.4,7.8-4.8,6-.7,10.2,2.9,10.6,9.4.3,4.8.1,9.7.2,14.5,0,1.4-.7,1.3-1.6,1.3s-1.9.3-1.7-1.2v-13.6c-.1-4.6-1.7-6.8-5.1-7.5s-7.2,1.4-8.9,4.9c-1,1.9-1,4-1,6-.2,3.3-.1,6.5-.1,9.8,0,1.1-.1,1.8-1.5,1.7-1.1-.1-1.9,0-1.9-1.6.1-7.2.1-14.5,0-21.7,0-1.5.7-1.5,1.8-1.6,1.4-.1,1.6.5,1.5,1.6-.2.8-.1,1.5-.1,2.8h0Z"/>
  <path id="path68" class="cls-1" d="M618.55,347.41c0,2.4-.1,4.8,0,7.1.2,4.2,3.3,6.8,7.7,6.7,3.8.1,7-2.9,7.2-6.7v-.3c.1-4.5.1-9,0-13.6,0-1.4.2-1.9,1.8-1.9s1.6.6,1.6,1.8c-.2,5.2.5,10.5-.5,15.7-1.1,5.6-5.1,8.2-11.7,7.9-5-.2-9-4.1-9.3-9.1-.5-4.9-.2-9.8-.3-14.8,0-1.5.7-1.5,1.7-1.5s1.8,0,1.8,1.5c-.1,2.4,0,4.8,0,7.2h0Z"/>
  <path id="path70" class="cls-1" d="M237.45,364.11c-7.6,0-13.4-5.4-13.5-12.4,0-7.5,5.7-13.2,13.4-13.3,4,0,7.7.9,10.6,3.9.5.5,1.7,1.1.8,2-.8.7-1.7,1.6-3.1.2-4.3-4.3-11.2-4.4-15.6-.2l-.4.4c-2.8,3.2-3.3,7.8-1.1,11.5,2.3,3.8,6.7,5.8,11,5,2.4-.3,4.6-1.5,6.2-3.2,1.3-1.5,2.1-.3,2.9.3,1.2,1-.2,1.5-.6,2-2.5,2.5-6.1,3.8-10.6,3.8h0Z"/>
  <path id="path72" class="cls-1" d="M301.05,305.91c2.3-5.7,4.7-11.2,6.9-16.8.8-2.2,1.8-3.4,4.6-2.5-3.8,9.2-7.5,18.3-11.3,27.5h-.6c-3.8-9.1-7.5-18.3-11.3-27.5,2.4-.8,3.6-.1,4.5,2.2,1.9,5.1,4.1,10.1,6.2,15.1.1.7.1,1.4,1,2h0Z"/>
  <path id="path74" class="cls-1" d="M18.55,308.41c1.2.8,2.2,1.9,3.6,2.4,2.1.8,4.4,0,5.6-1.8,1.2-1.9.7-4.4-1.1-5.7-1.6-1.2-3.3-2.1-5-3.3-2.3-1.6-3.9-3.7-3.9-6.7,0-3.4,1.6-6.1,4.5-7.1,3.2-.9,6.5.2,8.6,2.8,1.3,1.7-1,1.9-1.2,3.1-1.3-.8-2.2-1.9-3.6-2.5-1.6-.8-3.4-.3-4.4,1.1-1.1,1.2-1.2,3.1-.2,4.4s2.3,2.4,3.9,3.1c1.5.8,3,1.8,4.2,3,3,3.3,2.8,8.4-.6,11.4l-.1.1c-3.1,2.8-9.1,2.2-11.6-1.1q-.7-.8,1.3-3.2h0Z"/>
  <path id="path76" class="cls-1" d="M394.55,352.51v-9.1c0-1.2-.1-2-1.6-1.8-1.1.2-1.7-.1-1.7-1.5,0-1.5.8-1.5,1.8-1.4,1.4.2,1.5-.6,1.5-1.7,0-1.4,0-2.9.2-4.3.6-2.9,3.4-4.8,6.3-4.3.6.1,1.2.4,1.8.7,1,.7.6,1.8.4,2.5s-1,.2-1.5.1c-2.8-.6-3.7-.1-3.8,2.7v1q-.1,3.1,3,3.2c.9,0,2-.5,2,1.3s-1.1,1.6-2.1,1.5c-2.5-.4-3.1.6-3,3,.2,5.7,0,11.4.1,17.2,0,1.2-.2,1.8-1.6,1.8s-1.9-.4-1.8-1.9c.1-2.8,0-5.9,0-9h0Z"/>
  <path id="path78" class="cls-1" d="M68.95,332.31c-.7-.1-1.2-.2-1.6-.3-3-.8-3.8-.2-3.9,2.8,0,.4,0,.8-.1,1.2-.5,2.4.5,3.2,2.9,2.9.7-.1,2-.8,2.2.9.1,1.5-.4,2-1.9,2-3.1-.1-3.1,0-3.1,3.1v16.9c0,1.3-.1,2-1.7,2s-1.8-.6-1.8-2c.1-6,0-11.9,0-17.9,0-1.4,0-2.5-1.9-2.2-1,.2-1.3-.3-1.3-1.3s.1-1.8,1.4-1.5c1.7.3,2-.5,1.9-2-.1-1-.1-2.1,0-3.1.4-4.2,3.9-6.1,7.9-4.6,1.8.7.5,2,1,3.1h0Z"/>
  <path id="path80" class="cls-1" d="M62.75,301.61c0-3.2-.1-6.4,0-9.5.1-2-.4-2.8-2.4-2.4-1.2.2-2.1.1-2-1.6.1-1.3.3-2,1.7-1.7,2.4.5,2.9-.7,2.7-2.8-.2-2,0-4-.1-6-.1-1.3.3-1.8,1.7-1.8s1.7.4,1.7,1.7c-.1,2.4,0,4.8-.1,7.1-.1,1.4.3,1.9,1.7,1.7.8-.1,1.6,0,2.4,0,1.5-.1,1.1,1,1.1,1.8s.2,1.6-1.1,1.6-3.2-.7-3.8.3-.3,2.9-.3,4.4v17.9c0,1.3-.2,1.8-1.6,1.8s-1.8-.4-1.7-1.7c.1-3.7.1-7.2.1-10.8h0Z"/>
  <path id="path82" class="cls-1" d="M204.45,352.41c0,3.3-.1,6.5,0,9.8.1,1.5-.6,1.5-1.7,1.5s-1.7-.1-1.7-1.5c.1-6.1,0-12.2.1-18.3,0-1.8-.5-2.3-2.2-2.2-.7.1-2,.8-2.2-.9s.4-2.2,2-1.9c2,.4,2.7-.4,2.4-2.4-.2-1.7,0-3.5-.1-5.2,0-1.3,0-2,1.7-2s1.7.9,1.6,2c0,2,.1,4,0,6-.1,1.4.4,1.8,1.7,1.6.7-.1,1.4,0,2.1,0,1-.1,1.4.3,1.4,1.4s-.2,1.5-1.4,1.6q-3.8.2-3.8,4l.1,6.5Z"/>
  <path id="path84" class="cls-1" d="M538.95,352.41c0,3.3-.1,6.5,0,9.8.1,1.4-.6,1.5-1.7,1.5s-1.7-.1-1.7-1.5c.1-6.1,0-12.2.1-18.3,0-1.8-.5-2.3-2.2-2.2-.7.1-2,.8-2.2-.9s.4-2.2,2-1.9c2,.4,2.7-.4,2.4-2.4-.2-1.7,0-3.5,0-5.2-.1-1.3,0-2,1.7-2s1.7.9,1.6,2c0,2,.1,4,0,6-.1,1.4.4,1.8,1.7,1.6.7-.1,1.4,0,2.1,0,1-.1,1.4.3,1.4,1.4s-.2,1.5-1.4,1.5c-3.8.1-3.8.2-3.8,4v6.6h0Z"/>
  <path id="path86" class="cls-1" d="M396.35,289.81c1.9-2.5,3.8-4.3,6.8-4,.9.1,2.3.1,2,1.3-.2.9-.3,2.8-2.5,2.2s-3.5,1-4.5,2.7c-1.3,2.3-1.9,4.9-1.8,7.6-.1,4,0,8.1,0,12.2,0,1.1.4,2.3-1.6,2.3s-1.7-1-1.7-2.2v-23.4c0-1.1-.4-2.3,1.6-2.3s1.7,1.1,1.7,2.3c-.1.3-.1.6,0,1.3Z"/>
  <path id="path88" class="cls-1" d="M108.05,342.01c2.2-2.5,4.4-4.1,7.4-3.5.5.1,1.8,0,1.4,1.1-.3.8-.7,1.9-1.8,2-4.6.4-6,1.6-6.8,6.2-.8,4.7-.3,9.5-.4,14.3,0,1.2-.2,1.6-1.6,1.7-1.5,0-1.8-.4-1.8-1.8.1-7.1,0-14.1,0-21.2,0-1.1-.2-2,1.5-1.9,1.4,0,2.1.3,1.8,1.8.2.3.2.8.3,1.3h0Z"/>
  <path id="path90" class="cls-1" d="M442.55,341.91c2-2.2,3.9-3.8,6.7-3.6.9.1,2.3.2,2.2,1.1s-.5,2.4-2.5,1.9c-2.6-.6-5.3,2.1-5.9,5.9-.9,4.8-.3,9.6-.4,14.5,0,1.2,0,2.1-1.7,2-1.4-.1-1.7-.4-1.7-1.8.1-7.1,0-14.1,0-21.2,0-1.2-.1-2.1,1.6-2s1.9.7,1.7,2v1.2h0Z"/>
  <path id="path92" class="cls-1" d="M208.25,300.11c0,4.1-.1,8.3,0,12.4,0,1.4-.5,1.5-1.7,1.5s-1.7,0-1.7-1.5c.1-8.2.1-16.5,0-24.8,0-1.4.6-1.5,1.7-1.5s1.7.1,1.7,1.5v12.4Z"/>
  <path id="path94" class="cls-1" d="M625.85,300.21v12.1c0,1.3-.3,1.8-1.7,1.8s-1.7-.4-1.7-1.8c.1-8.1.1-16.2,0-24.3,0-1.4.4-1.7,1.7-1.8s1.7.5,1.7,1.8v12.2h0Z"/>
  <path id="path96" class="cls-1" d="M539.05,300.21v12.1c0,1.3-.3,1.8-1.7,1.8s-1.7-.4-1.7-1.8c.1-8.1.1-16.2,0-24.3,0-1.4.4-1.7,1.7-1.8s1.7.5,1.7,1.8c-.1,4.1,0,8.1,0,12.2h0Z"/>
  <path id="path98" class="cls-1" d="M21.65,351.21c0,3.6-.1,7.3,0,11,0,1.4-.6,1.5-1.7,1.5s-1.7-.1-1.7-1.5c.1-7.3.1-14.6,0-21.9,0-1.4.6-1.5,1.7-1.5s1.7.1,1.7,1.5v10.9Z"/>
  <path id="path100" class="cls-1" d="M217.85,351.41c0,3.6-.1,7.1,0,10.7,0,1.4-.5,1.5-1.7,1.5s-1.8,0-1.7-1.5c.1-7.3.1-14.6,0-21.9,0-1.4.6-1.5,1.7-1.5s1.8,0,1.7,1.5c-.1,3.8,0,7.5,0,11.2h0Z"/>
  <path id="path102" class="cls-1" d="M352.95,351.01c0-3.5.1-7,0-10.5,0-1.4.4-1.7,1.7-1.7s1.7.5,1.6,1.8v21.4c0,1.3-.3,1.8-1.7,1.7s-1.7-.4-1.7-1.8c.1-3.6.1-7.3.1-10.9Z"/>
  <path id="path104" class="cls-1" d="M549.05,351.01c0-3.5.1-7,0-10.5,0-1.4.4-1.7,1.7-1.7s1.7.5,1.7,1.8c-.1,7.1-.1,14.3,0,21.4,0,1.3-.3,1.8-1.7,1.7s-1.7-.4-1.7-1.8c.1-3.6,0-7.3,0-10.9Z"/>
  <path id="path106" class="cls-1" d="M540.15,278.31c-.3,1.5-.9,2.8-2.7,2.8-1.4.1-2.6-.9-2.7-2.4v-.5c-.1-1.4.9-2.6,2.3-2.8h.3c1.9-.1,2.6,1.2,2.8,2.9h0Z"/>
  <path id="path108" class="cls-1" d="M621.55,278.21c.3-1.5.9-2.8,2.6-2.9s2.8,1.2,2.8,2.8-.8,2.9-2.8,2.9-2.3-1.3-2.6-2.8Z"/>
  <path id="path110" class="cls-1" d="M206.55,275.31c1.5-.1,2.8,1,2.9,2.4v.5c.2,1.4-.8,2.6-2.2,2.8h-.4c-1.9,0-2.7-1.2-2.7-2.9-.2-1.4.9-2.7,2.4-2.8q-.1,0,0,0h0Z"/>
  <path id="path112" class="cls-1" d="M216.05,334.11c-1.4,0-2.5-1.2-2.4-2.6v-.2c.1-1.5,1.4-2.5,2.9-2.4,1.4.1,2.4,1.3,2.4,2.6,0,1.6-1.1,2.5-2.9,2.6Z"/>
  <path id="path114" class="cls-1" d="M354.45,334.11c-1.4,0-2.5-1.1-2.5-2.5v-.3c0-1.3,1-2.4,2.3-2.5h.3c1.3-.2,2.5.8,2.7,2.1v.5c.1,1.7-.9,2.6-2.8,2.7h0Z"/>
  <path id="path116" class="cls-1" d="M550.95,334.11c-1.7,0-2.8-.9-2.8-2.6-.1-1.4.9-2.6,2.2-2.7h.5c1.3-.1,2.5.8,2.6,2.2v.3c.2,1.4-.8,2.6-2.1,2.8h-.4Z"/>
  <path id="path118" class="cls-1" d="M19.95,334.11c-1.5,0-2.6-1.3-2.6-2.7,0-1.5,1.3-2.6,2.7-2.6h.1c1.3-.1,2.5,1,2.5,2.3v.3c.2,1.6-.8,2.6-2.7,2.7h0Z"/>
  <path id="path8" class="cls-1" d="M732.95,105.71c.6-1.6,1.8-2.2,3.5-2.2,4.4.1,8.6,0,13,0,.5,0,.9.4,1,.9v.1c.1,1.1-.3,2.2-.7,3.2-.9,2-1.6,3.5-2.6,6-23.2,52.8-46.2,105.7-69.3,158.6-.6,1.1-1.7,1.9-3,1.9-4.4-.1-8.9,0-13.6,0-.7,0-1.2-.7-.9-1.4,2.2-5.2,4.4-10.2,6.6-15.2,5.3-12.2,10.7-24.4,16-36.6.7-1.3.7-2.9,0-4.3l-49.5-111c-.1-.3-.3-.7-.4-1-.2-.6.2-1.3.9-1.3h14.5c1.2,0,1.4.8,1.7,1.6l27.5,61.5,13.8,30.9c.4.8,1.5.8,1.8-.1l39.7-91.6Z"/>
  <path id="path10" class="cls-1" d="M610.55,228.21h-22.3c-.9,0-1.5-.7-2-1.2l-59.8-53.7c-.4-.3-.8-.6-1.6-1.3v2.9c0,17,0,33.9.1,50.9,0,1.9-.6,2.4-2.4,2.3h-12.4c-1.3,0-1.7-.4-1.6-1.6v-1.2c0-55.9,0-111.7-.1-167.6,0-2.4.6-2.9,2.8-2.8h11.2c1.9-.1,2.3.6,2.3,2.4-.1,25-.1,50,0,75.1v20.8c2.4-2,4.4-3.7,6.4-5.4,16.4-14.3,32.8-28.5,49.2-42.8,1.1-1.1,2.7-1.7,4.3-1.6,7,.1,14,0,21.5,0-2.3,2-4.2,3.7-6.1,5.4-20.1,17.4-40.2,34.7-60.4,52.1-1.7,1.4-1.7,2.1-.1,3.6,23,20.7,46.2,41.4,69.1,62.3l1.9,1.4h0Z"/>
  <path id="path12" class="cls-1" d="M403.45,231.21c-25.6,0-44.7-8.4-58.9-26.9-9.9-12.9-13.3-27.5-11.9-43.6,2.4-28.5,24-54.4,57.4-59.3,18.2-2.7,35.4.3,51.4,9.6,7,4.2,12.9,9.9,17.3,16.9.8,1.2.8,1.7-.6,2.5-3.3,2-6.6,4-9.9,6.2-1.3.9-1.8.5-2.6-.6-8.2-10.3-18.7-17.1-31.8-19.5-22.9-4.2-45.4,2.6-58.4,23.8-15.1,24.5-4.9,59.7,24.1,71.6,21.6,8.8,48.8,4.9,65.9-16.2,1-1.3,1.6-1.5,3-.6,3.1,2.2,6.3,4.3,9.5,6.3,1.5.9,1.4,1.6.5,2.8-9.2,12.6-21.6,20.4-36.6,24.3-6.1,1.8-12.3,2.7-18.4,2.7h0Z"/>
  <path id="path16" class="cls-1" d="M36.25,232.21c-13.8-.4-25.6-5.2-35.2-15.5-1.2-1.3-1.5-2.1-.2-3.5,2.6-2.7,5-5.5,7.4-8.4,1-1.3,1.7-1.3,2.8-.1,5.2,5.6,11.2,10.2,18.9,11.8,9.7,2,18.1-.5,24.5-8.1,6.6-7.9,5.6-19.6-2.3-26.3-.1-.1-.2-.1-.2-.2-6-5-12.9-8.4-19.7-12-7.2-3.9-14.3-8-19.5-14.3-8.3-10-9.8-21.5-5.4-33.4,4.3-11.7,13.3-18.2,25.6-20.3,13.2-2.1,24.4,2.6,34.6,10.4,2.2,1.7,5.7,3.3,5.9,5.5s-2.1,4.2-3.9,6.2c-1.4,1.6-4.1,3.9-5.8,4.1-1.3.2-3.2-2.3-4.7-3.6-5.4-4.3-11.2-7.4-18.1-8.3-9.6-1.3-19.3,5.3-20.9,14.8-1.1,6.5,1.9,11.8,6.5,16,4.7,4.3,10.2,7.3,15.8,10.3,6.2,3.2,12.2,6.9,17.9,11,20.8,15.1,17.8,45.3-3.2,58.1-6.3,4-13.5,5.9-20.8,5.8h0Z"/>
  <path id="path18" class="cls-1" d="M156.55,226.71c0,2-.5,2.4-2.4,2.4h-11.7c-2,0-2.3-.6-2.3-2.4.1-35.2,0-70.5.1-105.6,0-2.3-.4-3-2.9-3-5.7,0-11.3,0-17,.1-1.4,0-2.1-.2-2-1.9v-10.3c-.1-1.6.5-1.8,1.9-1.8,5.9.1,11.8,0,17.7.1,1.8,0,2.4-.4,2.4-2.3-.1-14,0-27.9-.1-41.8,0-1.8.4-2.4,2.4-2.4h12.2c1.7,0,2,.5,2,2-.1,14,0,27.9-.1,41.8,0,2.3.7,2.7,2.8,2.6,6.9-.2,13.9,0,20.8-.1,1.6,0,2,.4,2,2v10c.1,1.6-.5,2-2,2-7.1-.1-14.2,0-21.3-.1-1.8,0-2.2.2-2.2,2.2l-.3,106.5Z"/>
  <path id="path14" class="cls-1" d="M189.95,193.41c1.8,1.3,8,4.3,9.9,5.5q4.7,2.8,8.5,6.3c3.2,2.6,4.9,6.6,4.5,10.8-.4,2.8-1,5.6-1.8,8.4-.9,3.2-1.8,6.5-1.4,9.9.8,6.5,5.1,10.2,10.8,12.3,13.3,5.1,27,7.8,41.2,5.8,7.8-1,14.3-4.7,18.4-11.8,4.4-7.5,8.5-15.4,12-23.3,1.1-2.3,1.9-4.7,2.4-7.2.6-2.1-.2-4.3-2-5.5-2.1-1.6-4.1-3.5-5.9-5.5,2.5-.2,4.5-.2,6.6-.6,3.8-.7,5-2.5,4-6.3-2.2-8.9-.2-16.6,7.1-22.5,1.9-1.5,3.7-3,5.6-4.4,3-2.1,5.8-4.6,8.2-7.3,3.4-3.9,4.9-9.2,4-14.2-1.1-6.8-4.7-12.4-8.6-17.9-4.8-6.7-10.1-13.2-13.8-20.7-5.3-10.9-5.8-21.4,2.4-31.3,6.5-7.9,7.4-16.9,3.9-26.4-5.7-15.2-14.4-28.6-25-40.8-1.9-2.1-4.2-4-6.8-5.2-1.8-1-3.9-1.6-5.9-1.5-3.2,0-6.3,1.3-8.5,3.7-2.1,2.2-4,4.8-5.1,7.7-2.6,5.6-4.4,11.6-5.5,17.7-.7,3.6-2.8,4.8-5.9,5.6-4.2,1.1-8.2,0-12.2-1.3-5.4-1.7-10.4-4.3-15.9-5.8-6.7-1.9-13.4-1.9-18.4,3.6-7.1,7.8-10.1,17-8.1,27.6,1.3,6.4,4.8,11.7,8.5,16.9,3.4,4.8,7.1,9.4,10,14.6,5.1,9.4,4.8,22.4-3.6,31.1-2,2.1-4,4.1-6.1,6.1-5.8,5.4-11.9,10.4-17.2,16.4-8.6,9.7-10.8,22.4-6.3,33.1,2.4,5.7,6.6,10.4,11.8,13.7l4.2,2.7h0ZM198.05,191.51c-6.7-3.6-11.2-7.2-15.6-12.3-2.5-3-3.8-6.7-3.9-10.6-.3-2.1-.3-4.3,0-6.4.5-5.9,3.6-10.4,7.4-14.7,5.8-6.6,12.9-11.9,19.1-18.1,5.1-4.9,9.3-10.3,10.9-17.3,2.5-10.1.4-19.5-5.2-28-3.6-5.5-7.5-10.7-11.2-16.1-3.2-4.7-5.5-9.9-5.1-15.8.4-5.5,2.3-10.7,5.6-15,2.8-3.7,6.6-4.4,10.9-3.6,6.2,1.3,11.8,4.3,17.8,6.2,4.5,1.4,9,2.8,13.8,1.7,7-1.5,11.4-3.6,12.7-11.4,1-6.2,3-12.1,5.9-17.6,1.3-2.4,2.6-4.8,5.5-5.5.4-.2.7-.2,1.1-.2.5,0,.9.1,1.4.2,4,.9,6.5,3.8,8.9,6.7,5.4,6.3,9.7,13.4,14,20.5,3.2,5.5,6.3,11.2,8,17.3.3,1.1.6,2.3.6,3.4.4,2.1.4,4.3,0,6.3,0,2.1-1,4-2.1,5.7-2.5,4.3-5.9,7.8-7.7,12.5-.9,2.5-1.5,5-1.8,7.6-.2,1.5-.2,3.1-.1,4.6.1.4.1.8.2,1.2.9,9.7,5.3,17.8,10.7,25.6,4.1,5.9,8.9,11.6,12.4,17.9,2.4,4.1,4.3,8.5,2.8,13.4-1.1,3.9-4.2,6.3-7.2,8.7-4.4,3.6-9.3,6.6-13,11.2-3.1,3.8-4.9,8.4-5.4,13.3-.3,1.6-.3,3.2,0,4.8l.1.7c.3,3.9.3,3.8-3.8,4.1-2.6.2-5.2.6-6.4,3.3-1.2,2.7-.1,4.9,1.6,7,1.3,1.7,2.8,3.1,4.4,4.4,2,1.3,2.2,2.9,1.3,5.1-2.2,5.4-4.9,10.5-7.5,15.7-1.5,2.9-3.4,5.6-4.8,8.5-3.3,6.6-9.2,9-16,9.7-11.6,1.1-22.8-1.2-33.8-4.7-.6-.2-1.2-.5-1.7-.7-7-3.2-8.2-5.6-6.3-13.1.9-3.7,2.1-7.4,2.5-11.2.6-6.7-2.1-11.8-6.6-16-1.3-1.3-2.8-2.3-4.4-3.2l-10-5.8h0Z"/>
  <path class="cls-1" d="M251.21,219.09c-7.22,3.51-16.54,1.1-20.96-4.41-5.82-7.42-3.51-15.14,4.51-19.15,8.32-4.31,15.84-3.21,21.46,2.51,2.41,2.21,3.81,5.21,3.91,8.42-.2,6.62-3.71,10.03-8.92,12.63Z"/>
  <path class="cls-1" d="M277.18,46.43c-2.91,17.15-5.51,34.39-8.32,51.54-2.51,15.74-5.01,31.38-7.52,47.02-1.5,9.73-3.21,19.45-4.71,29.18-.1.9,0,1.6-1.4,1.6-5.72.1-11.33.2-16.94.2,2.51-15.84,4.81-31.28,7.32-46.72,2.61-16.14,5.11-32.18,7.72-48.33,1.7-10.93,3.51-21.86,5.01-32.89.3-2.41,1-3.41,3.71-3.21,4.51.3,9.12.1,13.74.1,1,0,1.7-.1,1.4,1.5Z"/>
</svg>