<?xml version="1.0" encoding="UTF-8" standalone="no"?>
<!-- Created with Inkscape (http://www.inkscape.org/) -->

<svg
   xmlns:dc="http://purl.org/dc/elements/1.1/"
   xmlns:cc="http://creativecommons.org/ns#"
   xmlns:rdf="http://www.w3.org/1999/02/22-rdf-syntax-ns#"
   xmlns:svg="http://www.w3.org/2000/svg"
   xmlns="http://www.w3.org/2000/svg"
   xmlns:sodipodi="http://sodipodi.sourceforge.net/DTD/sodipodi-0.dtd"
   xmlns:inkscape="http://www.inkscape.org/namespaces/inkscape"
   width="415.69968mm"
   height="151.53487mm"
   viewBox="0 0 415.69968 151.53487"
   version="1.1"
   id="svg8"
   inkscape:version="0.92.4 (5da689c313, 2019-01-14)"
   sodipodi:docname="sticky-logo.svg">
  <defs
     id="defs2" />
  <sodipodi:namedview
     id="base"
     pagecolor="#ffffff"
     bordercolor="#666666"
     borderopacity="1.0"
     inkscape:pageopacity="0.0"
     inkscape:pageshadow="2"
     inkscape:zoom="0.45254834"
     inkscape:cx="941.5533"
     inkscape:cy="174.48148"
     inkscape:document-units="mm"
     inkscape:current-layer="layer1"
     showgrid="false"
     inkscape:pagecheckerboard="true"
     inkscape:window-width="1920"
     inkscape:window-height="1027"
     inkscape:window-x="-8"
     inkscape:window-y="22"
     inkscape:window-maximized="1"
     fit-margin-top="0"
     fit-margin-left="0"
     fit-margin-right="0"
     fit-margin-bottom="0" />
  <metadata
     id="metadata5">
    <rdf:RDF>
      <cc:Work
         rdf:about="">
        <dc:format>image/svg+xml</dc:format>
        <dc:type
           rdf:resource="http://purl.org/dc/dcmitype/StillImage" />
        <dc:title></dc:title>
      </cc:Work>
    </rdf:RDF>
  </metadata>
  <g
     inkscape:label="Layer 1"
     inkscape:groupmode="layer"
     id="layer1"
     style="display:inline;opacity:1"
     transform="translate(109.3925,-33.588969)">
    <path
       style="fill:#000000;stroke-width:0.26458332"
       d=""
       id="path23"
       inkscape:connector-curvature="0" />
    <path
       style="fill:#000000;stroke-width:0.26458332"
       d=""
       id="path21"
       inkscape:connector-curvature="0" />
    <path
       style="fill:#000000;stroke-width:0.26458332"
       d=""
       id="path33"
       inkscape:connector-curvature="0" />
    <path
       style="display:inline;opacity:1;fill:#fefefe;stroke-width:0.26458332"
       d="m 255.77176,184.99707 c 0,-0.0697 2.98165,-6.94554 6.62591,-15.27968 3.81349,-8.7212 6.57937,-15.3776 6.51629,-15.68216 -0.0603,-0.29104 -6.38738,-14.57854 -14.06022,-31.75 -7.67284,-17.17146 -14.0112,-31.369664 -14.08523,-31.551565 -0.1048,-0.257497 0.94084,-0.33034 4.72234,-0.328972 l 4.85696,0.0019 11.76356,26.321447 c 6.46996,14.47681 11.85563,26.2294 11.96813,26.11688 0.11253,-0.11252 5.30559,-11.92819 11.54015,-26.25706 l 11.33557,-26.052584 4.67598,-0.07225 4.67598,-0.07225 v 0.642633 c 0,0.464672 -33.06749,76.725181 -40.13906,92.569061 l -0.67903,1.52136 h -4.85868 c -2.67226,0 -4.85865,-0.057 -4.85865,-0.12671 z M 27.45127,173.19731 c -5.11227,-0.47376 -11.71844,-2.02695 -14.92754,-3.50965 -1.08324,-0.50048 -2.5268497,-1.4237 -3.2080397,-2.0516 -2.74703,-2.53213 -3.07874,-4.76185 -1.5922,-10.70265 1.43448,-5.73271 1.09555,-7.48842 -1.97926,-10.25293 -1.40973,-1.26747 -5.39406003,-3.43541 -8.11159,-4.41365 -2.83436,-1.02029 -8.4846303,-6.4807 -9.9988303,-9.66285 -1.52496,-3.20474 -2.07971,-7.63416 -1.37206,-10.95532 1.00178,-4.70163 3.63761,-8.47198 9.6750103,-13.83938 8.216,-7.30423 10.06805,-9.578159 10.9916,-13.49541 0.50632,-2.147544 0.50418,-4.715936 -0.006,-6.699616 -0.81096,-3.155828 -1.96265,-5.108368 -7.63311003,-12.940948 -1.89517997,-2.617817 -3.44830997,-5.793478 -4.01780997,-8.215162 -1.56205,-6.642346 2.20852,-15.619979 7.37168,-17.551763 3.05965,-1.144765 5.94946,-0.728943 12.4750597,1.795058 6.68966,2.587458 9.55865,2.880878 12.0554,1.232937 0.87493,-0.577482 0.9718,-0.793605 1.68541,-3.760089 2.92683,-12.166923 7.57012,-16.736063 13.87507,-13.653493 2.81531,1.37645 5.71885,4.58619 9.9486,10.9978 7.57189,11.477708 9.90648,18.788479 7.85958,24.612271 -0.30056,0.855168 -1.43791,2.87896 -2.52744,4.497316 -2.72183,4.042929 -3.13723,5.057013 -3.27407,7.992785 -0.24585,5.274167 1.56669,9.336797 8.23805,18.464794 3.05904,4.18548 4.50129,6.53829 5.37426,8.7673 0.61986,1.58269 0.7263,2.24875 0.73942,4.62696 0.0141,2.55292 -0.0465,2.90009 -0.74697,4.28269 -0.95846,1.8917 -2.70799,3.68456 -6.24858,6.40332 -3.53557,2.71493 -5.35796,4.59644 -6.2728,6.47635 -0.63684,1.30865 -0.72495,1.79784 -0.72117,4.00431 0.002,1.38245 0.10167,3.34698 0.22069,4.36563 0.2078,1.77841 0.18945,1.87711 -0.46115,2.48126 -0.53205,0.49406 -1.10863,0.67139 -2.68489,0.82572 -1.10404,0.1081 -2.08796,0.27716 -2.18648,0.37569 -0.0985,0.0985 0.41195,0.67785 1.1344,1.28738 2.54051,2.14346 2.76875,2.44168 2.76875,3.61779 0,2.31779 -2.52065,8.13312 -6.88582,15.88611 -2.86055,5.08063 -5.57127,7.28602 -10.1798,8.2821 -2.47949,0.53591 -6.32534,0.71182 -9.3778,0.42894 z m 7.07238,-3.95787 c 4.06136,-0.65907 6.15871,-2.01631 8.18358,-5.29578 1.80734,-2.92715 5.71219,-10.54826 6.56352,-12.81005 l 0.67048,-1.78129 -1.9852,-1.90939 c -2.08857,-2.00881 -2.79259,-3.21806 -2.79259,-4.79663 0,-1.79775 1.96341,-3.02604 4.84245,-3.02938 l 1.27057,-0.002 -0.17843,-2.199 c -0.49554,-6.10717 1.7164,-10.21072 8.08833,-15.00524 4.85256,-3.65129 6.17904,-5.36161 6.15109,-7.93107 -0.029,-2.66986 -1.59446,-5.7115 -6.05962,-11.77396 -6.45842,-8.76874 -8.331,-13.077617 -8.39385,-19.314582 -0.0426,-4.231929 0.52648,-6.006854 3.21493,-10.026246 2.78165,-4.158747 3.03901,-4.729829 3.17777,-7.051508 0.26858,-4.493763 -2.81927,-11.322212 -9.43758,-20.87018 -3.51762,-5.07472 -6.61836,-7.95944 -8.5521,-7.95629 -2.45149,0.004 -4.51438,3.6577 -6.64981,11.777867 -1.32821,5.0506 -1.3571,5.093619 -4.40251,6.55537 -1.40848,0.67605 -2.1262,0.842928 -4.01342,0.933157 -2.99642,0.143261 -5.33327,-0.382101 -10.41095,-2.340544 -4.7487597,-1.831579 -5.8780997,-2.150568 -7.6708997,-2.166679 -2.58461,-0.02323 -4.16934,1.254427 -5.81313003,4.686719 -1.1775,2.458656 -1.56338997,4.368392 -1.41179997,6.986987 0.10986997,1.897898 0.26778997,2.436 1.34788997,4.592849 0.67289,1.343695 2.60171003,4.348081 4.28626003,6.676414 5.8357397,8.065942 7.4200797,12.764612 6.3788497,18.917709 -0.32041,1.89347 -0.72976,3.133352 -1.6593497,5.02602 -1.34344,2.735297 -1.87795,3.315957 -12.05699,13.097937 -4.39191,4.22059 -5.69311,5.93436 -6.72512,8.85745 -1.0198303,2.88857 -0.7158403,7.01566 0.72474,9.83943 0.64658,1.26741 2.45021,3.30614 4.88227,5.51868 1.55886,1.41815 2.34823,1.90448 4.42604997,2.72686 5.62616003,2.22679 10.03319973,5.76063 11.31784973,9.07536 0.92148,2.37767 0.84679,5.44947 -0.22884,9.41112 -1.1055,4.07163 -1.10959,5.44307 -0.02,6.68407 1.10589,1.25954 3.62298,2.41245 7.28757,3.33796 6.42777,1.62336 11.89104,2.16712 15.64796,1.55745 z m -11.4789,-11.49626 c -3.50761,-0.76312 -6.59389,-3.10571 -7.94481,-6.03036 -0.65927,-1.42728 -0.76046,-1.96318 -0.76046,-4.02759 0,-2.08206 0.0947,-2.57408 0.75364,-3.91603 1.44551,-2.9438 4.60281,-5.30495 8.05183,-6.02147 2.0895,-0.43409 5.6457,-0.18221 7.53003,0.53334 4.48019,1.70129 7.3605,5.88779 7.01469,10.19581 -0.35831,4.46381 -3.9596,8.23244 -8.85901,9.27065 -2.172,0.46025 -3.6555,0.45914 -5.78591,-0.004 z m -3.0321,-24.36398 c -0.28785,-0.34683 0.63496,-6.55292 5.58999,-37.594197 3.26412,-20.448334 6.01957,-37.317107 6.12324,-37.486157 0.25823,-0.421105 13.99109,-0.586843 14.75488,-0.178072 0.35551,0.190264 0.53476,0.554196 0.53476,1.085725 0,1.424247 -11.67537,73.913051 -11.96001,74.256011 -0.20876,0.25154 -2.02482,0.3321 -7.48686,0.3321 -6.23018,0 -7.25815,-0.0565 -7.556,-0.41541 z m -113.44676,28.42932 c -5.35088,-0.88979 -11.61243,-4.34825 -14.87263,-8.21465 l -1.08576,-1.28765 0.71891,-0.85529 c 0.3954,-0.4704 1.68416,-1.95231 2.86391,-3.29313 l 2.14499,-2.43784 1.45521,1.41014 c 4.39836,4.26215 8.52834,6.24367 13.01334,6.24367 10.55449,0 16.53176,-11.11025 9.83118,-18.27372 -1.58683,-1.69644 -5.17329,-4.07494 -10.14451,-6.7277 -7.80489,-4.16488 -12.28965,-7.76106 -14.35534,-11.51108 -1.7074,-3.0996 -2.18348,-5.16559 -2.16443,-9.39271 0.0149,-3.295 0.0962,-3.94425 0.73615,-5.87759 1.74435,-5.269582 5.97887,-9.476584 11.42053,-11.346305 1.7678,-0.607404 2.68576,-0.745567 5.60362,-0.843404 5.03145,-0.168704 8.63375,0.752208 12.8698,3.290112 1.97764,1.184844 5.5339,3.924327 6.7626,5.209427 l 0.8969,0.938059 -2.91763,2.979911 -2.91763,2.97991 -0.97131,-0.78173 c -3.42432,-2.75597 -4.70144,-3.64937 -6.40252,-4.478853 -5.4377,-2.651535 -10.56372,-2.130301 -14.13091,1.436883 -2.39222,2.39223 -3.27296,5.27585 -2.51501,8.23442 1.08079,4.21871 4.01078,6.81854 13.37684,11.86947 7.87421,4.2464 12.41775,8.01814 14.36158,11.92199 1.94986,3.91598 2.56683,8.85035 1.65097,13.2042 -1.61534,7.67902 -7.86464,13.85551 -15.69878,15.51586 -1.95201,0.41371 -7.27473,0.46263 -9.53007,0.0876 z M 107.6051,161.392 c -15.89219,-1.70193 -28.78545,-12.92738 -32.15348,-27.99427 -0.67241,-3.008 -0.81023,-10.02413 -0.26506,-13.49375 1.17686,-7.49002 4.57921,-14.30331 9.86365,-19.75221 5.18756,-5.349006 11.57849,-8.835296 19.41151,-10.589103 2.4483,-0.548169 3.42161,-0.614939 8.96421,-0.614939 5.53667,0 6.51748,0.06713 8.95449,0.612857 7.52913,1.686028 13.92327,4.909085 18.17612,9.161939 1.88348,1.883476 4.61939,5.506076 4.61939,6.116506 0,0.29474 -6.67076,4.62306 -7.10127,4.60765 -0.0961,-0.003 -0.53196,-0.49122 -0.96852,-1.08397 -1.30697,-1.77455 -4.52829,-4.67604 -6.92835,-6.24048 -8.88978,-5.794651 -21.73886,-6.379221 -31.22465,-1.42057 -6.87288,3.59277 -12.3333,10.36565 -14.11744,17.5107 -0.70866,2.83802 -0.95547,7.8969 -0.5297,10.8573 1.11171,7.72972 5.6886,14.95372 12.18623,19.23431 2.80701,1.84924 5.39826,2.9905 8.97669,3.95361 2.32388,0.62546 2.97003,0.68176 7.82472,0.68176 4.86711,0 5.49694,-0.0552 7.85007,-0.68819 5.6825,-1.52853 9.93903,-4.01702 14.19678,-8.29985 1.50274,-1.5116 2.80222,-2.74836 2.88772,-2.74836 0.44051,0 6.94625,4.41692 6.94693,4.71645 0.001,0.49956 -2.02678,3.06001 -4.00261,5.05372 -5.43414,5.4833 -12.77126,8.97191 -21.47029,10.20859 -2.45934,0.34962 -9.63186,0.47431 -12.09714,0.2103 z M -31.56573,129.69357 V 98.869603 h -6.08541 -6.08542 v -3.96875 -3.96875 h 6.08542 6.08541 V 78.099811 65.267519 h 4.49792 4.49792 v 12.832292 12.832292 h 7.01146 7.0114503 v 3.96875 3.96875 h -7.0114503 -7.01146 v 30.823967 30.82395 h -4.49792 -4.49792 z M 172.42802,111.83419 V 63.944602 h 4.62896 4.62897 l 0.0674,26.969978 0.0674,26.96997 15.85453,-13.7408 15.85454,-13.740814 h 6.56889 c 3.61291,0 6.56786,0.0893 6.56654,0.198438 0,0.10914 -8.50652,7.564609 -18.90046,16.567706 l -18.89808,16.36927 20.02494,17.9957 c 11.0137,9.89763 20.07455,18.03935 20.13519,18.09271 0.0606,0.0534 -2.86584,0.097 -6.50327,0.097 h -6.6135 L 198.79922,144.37969 181.68843,129.0356 v 15.34409 15.34408 h -4.63021 -4.6302 z"
       id="path42"
       inkscape:connector-curvature="0"
       sodipodi:nodetypes="sccscccscccccsccsssccscccccscccccscccccscccccccccccccsscccccccssccscccccssccssscssscccscccccccsccccsccscccccsccscscccccsccscscccssscccccsccsccccsccscsscsccssscscsccscccscccccccccccccccccccccccccccccccccscscscscccccccc" />
  </g>
</svg>
